<svg xmlns="http://www.w3.org/2000/svg" width="106" height="35" viewBox="0 0 106 39">
    <g fill="none" fill-rule="evenodd">
        <g fill-rule="nonzero">
            <g>
                <g>
                    <g fill="#091540">
                        <path d="M0 4.558c-.004-.535.1-1.065.307-1.559.196-.475.486-.906.851-1.267.37-.362.805-.65 1.282-.848C2.95.674 3.494.57 4.044.574c.352-.001.702.044 1.042.134.322.086.632.21.923.37.278.153.536.34.766.558.221.207.416.44.58.694L7.421.776h.762v7.571h-.762L7.354 6.8c-.164.253-.36.485-.582.689-.234.215-.492.4-.77.553-.29.16-.599.284-.919.37-.338.091-.688.137-1.039.135-.548.005-1.092-.1-1.599-.31-.478-.197-.914-.485-1.282-.848-.751-.75-1.17-1.771-1.162-2.833L0 4.558zm.867 0c-.016 1.306.77 2.488 1.981 2.978.81.324 1.715.324 2.526 0 .385-.156.736-.386 1.033-.676.62-.605.964-1.437.953-2.302.003-.437-.084-.87-.258-1.27-.164-.383-.402-.73-.699-1.021-.95-.908-2.345-1.173-3.562-.676-.385.156-.736.386-1.033.676-.61.605-.951 1.431-.946 2.29h.005zM18.057 8.347h-.877v-4.11c.07-.795-.178-1.585-.689-2.198-.537-.493-1.253-.744-1.98-.695-.372-.002-.74.069-1.085.21-.333.136-.637.336-.893.59-.262.263-.47.575-.609.919-.153.377-.23.781-.224 1.189v4.096h-.861V.776h.732l.082 1.316c.15-.22.327-.422.527-.598.212-.188.445-.35.695-.482.262-.14.539-.247.826-.322.298-.077.604-.116.912-.115.947-.072 1.882.253 2.58.897.632.771.94 1.757.86 2.75l.004 4.125zM19.96 4.558c-.004-.535.1-1.065.306-1.559.197-.475.486-.906.852-1.267.369-.362.804-.65 1.282-.848.508-.21 1.054-.315 1.604-.31.352-.001.702.044 1.042.134.322.086.632.21.923.37.278.153.536.34.766.558.221.207.416.44.58.694l.067-1.554h.763v7.571h-.763L27.315 6.8c-.164.253-.36.485-.583.689-.234.215-.492.4-.77.553-.29.16-.599.284-.919.37-.338.091-.688.137-1.039.135-.548.005-1.092-.1-1.6-.31-.478-.197-.913-.485-1.282-.848-.75-.75-1.17-1.771-1.162-2.833v.002zm.866 0c-.016 1.306.77 2.488 1.981 2.978.811.324 1.715.324 2.526 0 .385-.156.736-.386 1.034-.676.619-.605.963-1.437.953-2.302.003-.437-.085-.87-.259-1.27-.164-.383-.401-.73-.698-1.021-.95-.908-2.346-1.173-3.563-.676-.384.156-.735.386-1.033.676-.61.605-.951 1.431-.945 2.29h.004zM30.794.761L31.656.761 31.656 7.585 35.732 7.585 35.732 8.348 30.798 8.348zM42.572.761L39.559 5.118 39.559 8.347 38.698 8.347 38.698 5.118 35.686.761 36.687.761 39.087 4.229 39.124 4.348 39.169 4.229 41.561.761zM46.642 1.518L43.996 1.518 43.996.762 50.149.762 50.149 1.518 47.502 1.518 47.502 8.349 46.641 8.349zM51.997.776L52.862.776 52.862 8.348 51.994 8.348zM55.861 4.558c-.007.458.085.913.27 1.334.337.764.967 1.36 1.749 1.655.669.257 1.401.295 2.093.109.554-.149 1.058-.444 1.458-.856.2-.206.372-.44.508-.695h.89c-.14.359-.336.693-.58.99-.245.3-.534.561-.856.774-.333.218-.696.387-1.077.501-.402.12-.82.181-1.24.18-.552.004-1.098-.102-1.608-.31-.484-.198-.924-.487-1.297-.853-.367-.363-.66-.795-.861-1.27-.642-1.5-.3-3.239.86-4.384.373-.363.812-.651 1.294-.848.51-.21 1.058-.315 1.61-.31.42-.002.836.057 1.238.175.38.112.741.28 1.072.497.323.214.611.474.856.774.246.3.443.637.587.997h-.89c-.132-.255-.301-.49-.5-.698-.399-.415-.903-.713-1.458-.861-.29-.078-.59-.117-.89-.115-.417 0-.83.077-1.218.23-.383.147-.734.366-1.034.646-.303.286-.546.63-.713 1.013-.18.418-.27.87-.263 1.325zM65.171 6.232c.007.21.07.414.183.59.124.197.285.368.475.501.212.151.447.269.695.348.273.088.558.132.845.13.67.044 1.337-.1 1.928-.418.4-.228.645-.654.643-1.114.007-.22-.057-.436-.183-.617-.135-.178-.31-.32-.512-.418-.252-.124-.518-.215-.792-.273-.342-.075-.687-.133-1.034-.173-.21-.025-.425-.054-.646-.086-.22-.031-.437-.077-.65-.138-.207-.057-.408-.132-.602-.223-.184-.087-.352-.203-.497-.345-.145-.143-.26-.314-.34-.501-.09-.218-.133-.453-.128-.689 0-.281.054-.56.158-.822.11-.278.29-.525.52-.718.28-.23.604-.402.952-.504.47-.138.96-.202 1.45-.19.394-.006.785.048 1.163.16.318.093.617.244.882.444.234.18.425.41.56.673.133.261.2.551.198.845h-.851c-.008-.2-.066-.396-.169-.568-.105-.173-.247-.32-.415-.434-.19-.127-.402-.222-.624-.28-.257-.07-.522-.103-.789-.1-.343-.008-.685.034-1.016.126-.245.067-.475.181-.677.336-.162.127-.29.29-.374.478-.075.172-.114.358-.115.545-.006.194.048.384.154.546.117.163.276.292.459.374.242.112.496.194.758.243.347.069.698.118 1.05.146.21.025.43.056.659.093.227.037.452.088.673.154.217.064.428.146.631.246.194.095.372.22.527.37.153.152.275.332.359.53.094.23.14.475.134.722.007.343-.072.682-.23.987-.16.295-.39.546-.672.729-.333.213-.701.366-1.088.452-.484.11-.98.163-1.476.157-.424.006-.845-.064-1.245-.206-.345-.122-.668-.303-.953-.534-.252-.205-.46-.459-.613-.746-.14-.256-.214-.542-.217-.834l.852.006z" transform="translate(-120 -80) translate(120 80) translate(0 3) translate(3.948 22.389)"/>
                    </g>
                    <g>
                        <path fill="#091540" d="M0 4.036L4.482 4.036 4.482 15.99 8.003 15.99 8.003 4.036 12.47 4.036 12.47 1.025 0 1.025zM28.326 2.901c-.755-.731-1.644-1.31-2.62-1.702C24.65.774 23.52.562 22.382.574c-1.131-.012-2.254.2-3.303.625-.972.394-1.86.972-2.612 1.702-.732.719-1.314 1.577-1.71 2.523-.814 1.978-.814 4.197 0 6.174.397.944.979 1.8 1.71 2.516.753.73 1.64 1.308 2.612 1.701 1.928.755 4.055.829 6.031.21.793-.257 1.544-.632 2.226-1.111.638-.449 1.204-.99 1.681-1.608.449-.575.807-1.215 1.063-1.897h-3.827c-.36.64-.888 1.168-1.528 1.527-.706.397-1.504.598-2.314.581-.55 0-1.097-.095-1.615-.283-.519-.186-1.004-.456-1.435-.8-.911-.732-1.528-1.767-1.739-2.916h12.95c.02-.135.039-.276.058-.422.022-.193.031-.387.029-.582.012-2.11-.83-4.134-2.335-5.613h.002zm-10.6 4.116c.13-.513.342-1.001.625-1.447.276-.436.623-.822 1.026-1.142.411-.323.874-.576 1.368-.746.535-.184 1.098-.275 1.665-.27.547-.005 1.091.086 1.607.27.478.172.923.424 1.317.746.39.323.725.709.989 1.142.275.449.481.937.611 1.447h-9.208zM44.22 8.151c-.591-.335-1.228-.582-1.891-.734-.708-.17-1.426-.312-2.154-.429-.601-.068-1.125-.145-1.57-.232-.38-.068-.75-.175-1.107-.32-.253-.1-.478-.26-.654-.466-.15-.196-.227-.437-.219-.683 0-.235.056-.467.16-.677.116-.228.286-.425.495-.574.261-.183.553-.32.861-.402.412-.11.837-.161 1.263-.153.646-.032 1.285.147 1.82.51.43.296.704.772.742 1.294l3.536.014c.006-.657-.133-1.308-.408-1.905-.27-.58-.668-1.092-1.164-1.497-.546-.44-1.17-.771-1.84-.976-.79-.243-1.612-.36-2.438-.35-.995-.018-1.99.1-2.953.35-.737.19-1.43.523-2.037.981-.512.394-.917.909-1.179 1.498-.257.604-.386 1.256-.378 1.912-.01.498.068.993.233 1.462.141.388.35.748.618 1.062.256.293.555.544.888.746.334.203.687.37 1.055.502.364.129.736.233 1.113.312.374.076.73.14 1.07.19.679.126 1.285.244 1.819.356.461.09.914.219 1.353.385.319.113.607.297.844.539.196.219.3.505.291.8.004.565-.304 1.087-.8 1.359-.77.387-1.629.56-2.488.501-.394.004-.786-.05-1.164-.16-.336-.095-.655-.242-.946-.436-.259-.17-.48-.394-.648-.655-.155-.238-.243-.515-.254-.8l-3.478-.014c.004.617.138 1.227.393 1.789.277.612.681 1.157 1.186 1.6.583.507 1.257.9 1.986 1.156.897.312 1.844.462 2.794.443.979.01 1.955-.095 2.91-.312.796-.177 1.554-.495 2.239-.938.6-.396 1.095-.933 1.44-1.564.353-.68.528-1.438.51-2.203.03-.71-.147-1.412-.51-2.022-.34-.52-.798-.952-1.339-1.259zM59.61 8.151c-.592-.335-1.229-.582-1.891-.734-.71-.17-1.427-.312-2.154-.429-.602-.068-1.125-.145-1.572-.232-.378-.068-.749-.175-1.105-.32-.254-.1-.479-.26-.655-.466-.15-.196-.227-.437-.218-.683 0-.235.055-.467.16-.677.115-.228.285-.425.494-.574.261-.183.553-.32.861-.402.413-.11.84-.161 1.267-.153.645-.032 1.283.147 1.818.51.431.296.705.772.742 1.294l3.536.014c.007-.657-.132-1.307-.407-1.905-.27-.58-.668-1.092-1.164-1.497-.546-.44-1.17-.771-1.841-.976-.79-.243-1.611-.36-2.437-.35-.996-.018-1.99.1-2.954.35-.737.19-1.429.523-2.036.981-.512.394-.917.909-1.18 1.498-.257.604-.386 1.256-.377 1.912-.011.498.067.993.232 1.462.141.388.35.748.618 1.062.256.293.555.545.888.746.334.203.687.37 1.055.502.364.129.735.233 1.113.312.374.076.73.14 1.07.19.679.126 1.285.244 1.818.356.461.09.914.219 1.353.385.319.113.608.297.844.539.197.219.3.505.291.8.004.565-.303 1.087-.8 1.359-.77.387-1.629.56-2.488.501-.394.004-.786-.05-1.164-.16-.336-.095-.655-.242-.946-.436-.259-.17-.48-.394-.647-.655-.156-.238-.244-.515-.255-.8L48 11.462c.004.617.137 1.227.393 1.789.277.611.681 1.157 1.186 1.6.583.507 1.257.9 1.986 1.156.898.312 1.844.462 2.794.443.98.01 1.956-.095 2.91-.312.796-.177 1.555-.495 2.24-.938.6-.396 1.094-.933 1.44-1.564.352-.68.527-1.438.509-2.203.03-.71-.147-1.412-.51-2.022-.34-.52-.798-.952-1.339-1.259zM64.564 1.025H68.12899999999999V15.99H64.564zM85.368 2.901c-.755-.732-1.644-1.31-2.62-1.702-1.056-.425-2.185-.637-3.324-.625-1.131-.012-2.254.2-3.303.625-.972.394-1.859.972-2.611 1.702-.733.719-1.314 1.577-1.71 2.523-.815 1.978-.815 4.197 0 6.174.397.944.978 1.8 1.71 2.516.752.73 1.639 1.308 2.611 1.701 1.928.755 4.055.829 6.031.21.793-.257 1.544-.632 2.227-1.111.637-.449 1.204-.99 1.68-1.608.449-.575.807-1.215 1.062-1.897h-3.826c-.359.64-.888 1.168-1.528 1.527-.705.397-1.504.598-2.313.581-.551 0-1.098-.095-1.615-.283-.52-.186-1.004-.456-1.435-.8-.911-.732-1.529-1.767-1.74-2.916h12.952c.02-.135.038-.276.057-.422.022-.193.031-.387.029-.582.012-2.11-.83-4.134-2.335-5.613zm-10.6 4.116c.13-.513.342-1.001.625-1.447.276-.436.623-.821 1.026-1.142.411-.323.874-.576 1.368-.746.536-.184 1.099-.275 1.665-.27.547-.005 1.091.086 1.607.27.478.172.924.424 1.317.746.39.323.725.71.99 1.142.274.449.48.937.61 1.447h-9.208zM98.648 1.025c-.94-.022-1.873.151-2.742.51-.713.3-1.363.735-1.913 1.28l-.32-1.79h-2.868V15.99h3.536V8.82c-.012-.69.094-1.375.313-2.029.187-.55.495-1.053.902-1.469.401-.397.886-.7 1.419-.887.599-.206 1.23-.307 1.863-.298l1.76-.015v-3.1l-1.95.003z" transform="translate(-120 -80) translate(120 80) translate(0 3)"/>
                        <path fill="#FF2A00" d="M100.596 14.492c-.002-.262.047-.521.145-.764.097-.236.24-.451.422-.631.188-.187.41-.335.655-.437.542-.213 1.146-.213 1.688 0 .245.102.467.25.655.437.181.18.325.395.422.631.194.49.194 1.037 0 1.527-.096.236-.24.449-.422.626-.189.182-.411.325-.655.422-.269.104-.555.156-.844.152-.29.004-.576-.05-.844-.16-.243-.1-.465-.247-.655-.43-.182-.176-.326-.389-.422-.624-.097-.238-.146-.492-.145-.75z" transform="translate(-120 -80) translate(120 80) translate(0 3)"/>
                    </g>
                </g>
            </g>
        </g>
    </g>
</svg>