<svg xmlns="http://www.w3.org/2000/svg" width="90" height="32" viewBox="0 0 90 32">
    <g fill="none" fill-rule="evenodd">
        <g fill-rule="nonzero">
            <g>
                <g>
                    <g fill="#FFF">
                        <path d="M0 3.838c-.003-.45.085-.897.258-1.313.166-.4.41-.762.718-1.066.31-.305.677-.548 1.08-.715.427-.176.886-.265 1.35-.26.296-.002.59.036.877.113.27.072.532.177.778.311.233.129.45.286.644.47.186.174.35.37.488.584L6.25.653h.642V7.03H6.25l-.057-1.303c-.138.214-.303.409-.49.58-.197.181-.415.338-.649.466-.244.135-.504.24-.773.312-.286.077-.58.115-.875.113-.462.004-.92-.084-1.347-.26-.403-.166-.77-.409-1.08-.715C.347 5.59-.006 4.731 0 3.837v.001zm.73 0c-.013 1.1.649 2.096 1.668 2.508.683.273 1.445.273 2.127 0 .325-.131.62-.325.87-.57.522-.509.812-1.21.803-1.938.003-.368-.071-.732-.217-1.07-.139-.322-.339-.614-.589-.859-.8-.765-1.975-.988-3-.57-.324.132-.62.326-.87.57-.514.51-.8 1.205-.796 1.929H.73zM15.206 7.03h-.738V3.566c.058-.669-.15-1.334-.58-1.85-.453-.415-1.056-.627-1.669-.585-.313-.002-.623.058-.913.176-.28.115-.536.284-.752.498-.22.22-.395.484-.513.773-.129.318-.193.658-.189 1.001v3.45h-.725V.654h.617l.07 1.108c.126-.186.275-.355.443-.504.178-.158.374-.295.585-.406.22-.117.454-.208.696-.27.25-.066.509-.099.768-.098.797-.06 1.584.213 2.172.756.533.649.793 1.48.725 2.316l.003 3.473zM16.808 3.838c-.003-.45.085-.897.258-1.313.166-.4.41-.762.717-1.066.311-.305.678-.548 1.08-.715.428-.176.887-.265 1.35-.26.297-.002.592.036.879.113.27.072.531.177.777.311.234.129.45.286.645.47.186.174.35.37.488.584L23.06.653h.642V7.03h-.642l-.057-1.303c-.138.214-.303.409-.491.58-.196.181-.414.338-.648.466-.245.135-.504.24-.774.312-.285.077-.58.115-.875.113-.462.004-.92-.084-1.347-.26-.403-.166-.77-.409-1.08-.715-.632-.632-.985-1.491-.979-2.385v.001zm.73 0c-.014 1.1.649 2.096 1.668 2.508.683.273 1.444.273 2.127 0 .324-.131.62-.325.87-.57.522-.509.812-1.21.803-1.938.003-.368-.071-.732-.218-1.07-.138-.322-.338-.614-.588-.859-.8-.765-1.975-.988-3-.57-.324.132-.62.326-.87.57-.514.51-.8 1.205-.796 1.929h.004zM25.932.641L26.657.641 26.657 6.388 30.09 6.388 30.09 7.03 25.935 7.03zM35.85.641L33.313 4.31 33.313 7.029 32.588 7.029 32.588 4.31 30.051.641 30.895.641 32.915 3.561 32.947 3.662 32.984 3.561 34.999.641zM39.278 1.278L37.05 1.278 37.05.642 42.231.642 42.231 1.278 40.002 1.278 40.002 7.031 39.277 7.031zM43.787.654L44.515.654 44.515 7.03 43.785 7.03zM47.041 3.838c-.006.386.072.77.227 1.123.284.644.815 1.146 1.473 1.395.563.215 1.18.247 1.763.091.466-.125.89-.374 1.227-.72.17-.174.313-.372.428-.586h.75c-.118.302-.283.584-.49.834-.205.253-.448.472-.72.652-.28.183-.585.325-.906.421-.34.102-.692.153-1.046.151-.464.004-.924-.085-1.353-.26-.407-.167-.778-.41-1.092-.718-.31-.306-.556-.67-.725-1.07-.54-1.263-.253-2.727.725-3.692.314-.306.683-.548 1.088-.714.43-.176.892-.265 1.357-.261.353-.002.704.048 1.042.148.32.094.624.235.903.418.272.18.515.4.72.652.207.253.374.536.495.84h-.75c-.111-.216-.253-.414-.421-.588-.335-.35-.76-.6-1.228-.726-.244-.065-.496-.098-.749-.096-.351 0-.699.065-1.026.193-.322.124-.617.309-.87.544-.256.241-.46.531-.6.853-.153.352-.228.733-.222 1.116zM54.881 5.248c.005.177.059.349.154.498.104.165.24.308.4.421.179.127.376.226.585.293.23.074.47.111.712.11.563.037 1.126-.085 1.623-.353.337-.192.544-.55.542-.938.006-.185-.048-.367-.154-.52-.114-.149-.262-.27-.432-.352-.212-.104-.436-.18-.667-.23-.287-.063-.578-.111-.87-.145-.176-.021-.358-.045-.544-.072-.185-.027-.368-.066-.548-.116-.174-.049-.343-.112-.507-.189-.154-.072-.296-.17-.418-.29-.122-.12-.22-.264-.287-.422-.075-.184-.112-.381-.107-.58 0-.237.046-.472.133-.692.093-.235.244-.442.437-.605.237-.194.51-.338.803-.424.396-.117.808-.17 1.22-.161.332-.004.662.041.98.135.268.079.52.206.742.375.197.151.359.345.473.566.111.22.168.464.166.711H58.6c-.006-.168-.055-.333-.142-.478-.088-.145-.208-.27-.35-.365-.16-.107-.338-.187-.525-.236-.216-.058-.44-.087-.664-.085-.289-.006-.577.03-.856.107-.206.057-.4.153-.57.283-.136.106-.244.245-.315.402-.063.145-.096.302-.096.46-.005.162.04.323.129.459.099.137.232.246.386.315.204.094.419.163.64.205.291.058.587.099.884.122.176.022.36.048.554.08.191.03.38.074.566.128.183.054.361.124.532.208.164.08.313.185.444.312.129.128.231.28.302.446.079.193.118.4.113.608.006.289-.06.574-.193.831-.135.248-.33.46-.567.613-.28.18-.59.31-.915.381-.408.093-.826.138-1.244.132-.357.005-.712-.053-1.048-.173-.291-.103-.563-.255-.803-.45-.212-.172-.388-.386-.516-.628-.118-.215-.18-.456-.183-.702l.718.005z" transform="translate(-16 -12) translate(16 12) translate(0 2.526) translate(3.325 18.854)"/>
                    </g>
                    <g>
                        <path fill="#FFF" d="M0 3.399L3.774 3.399 3.774 13.465 6.74 13.465 6.74 3.399 10.501 3.399 10.501.863 0 .863zM23.853 2.443c-.635-.616-1.384-1.103-2.205-1.433-.89-.358-1.841-.537-2.8-.527-.953-.01-1.898.17-2.781.527-.82.331-1.566.818-2.2 1.433-.617.605-1.106 1.328-1.44 2.125-.686 1.665-.686 3.534 0 5.199.335.795.824 1.515 1.44 2.118.634.616 1.38 1.102 2.2 1.433 1.623.635 3.415.698 5.078.177.668-.217 1.3-.532 1.875-.936.537-.378 1.014-.834 1.415-1.354.378-.484.68-1.023.895-1.598h-3.222c-.303.54-.748.984-1.287 1.286-.594.335-1.267.504-1.948.49-.464 0-.924-.08-1.36-.239-.438-.156-.846-.384-1.209-.673-.767-.616-1.287-1.488-1.464-2.456h10.905c.017-.114.032-.232.048-.355.019-.163.027-.326.025-.49.01-1.777-.7-3.482-1.966-4.727h.001zM14.927 5.91c.11-.432.288-.843.527-1.219.232-.366.524-.691.864-.961.346-.272.735-.485 1.151-.629.451-.154.925-.23 1.402-.226.461-.005.92.072 1.354.226.402.146.777.358 1.109.629.329.272.61.597.833.961.231.378.405.79.515 1.219h-7.755zM37.238 6.864c-.498-.282-1.035-.49-1.593-.618-.596-.143-1.2-.263-1.813-.361-.507-.057-.948-.123-1.323-.196-.32-.057-.632-.147-.932-.27-.213-.083-.402-.218-.55-.392-.127-.165-.191-.368-.185-.575 0-.198.047-.393.135-.57.098-.192.24-.358.417-.483.22-.155.465-.27.725-.338.347-.093.705-.136 1.064-.13.543-.027 1.081.124 1.532.43.363.249.593.65.625 1.09l2.977.012c.006-.554-.111-1.102-.343-1.604-.228-.49-.563-.92-.98-1.262-.46-.37-.986-.649-1.55-.822-.665-.204-1.357-.303-2.052-.294-.84-.015-1.676.084-2.488.294-.62.16-1.203.441-1.715.827-.43.331-.772.765-.992 1.261-.218.51-.326 1.058-.319 1.61-.009.42.057.836.196 1.231.119.327.295.63.52.894.216.247.468.46.748.629.281.17.579.312.889.422.306.11.62.197.937.263.315.065.615.118.9.16.573.106 1.083.206 1.533.3.388.076.77.185 1.14.324.268.096.51.25.71.454.165.185.253.426.245.673.003.477-.256.917-.674 1.145-.648.326-1.371.472-2.095.423-.332.003-.662-.043-.98-.135-.283-.08-.552-.204-.797-.367-.218-.144-.403-.332-.545-.552-.131-.2-.205-.433-.214-.673l-2.929-.012c.003.52.116 1.033.33 1.506.234.515.574.974 1 1.347.49.427 1.058.758 1.672.974.756.263 1.553.39 2.353.373.824.008 1.646-.08 2.45-.263.67-.15 1.31-.417 1.886-.79.506-.333.922-.786 1.213-1.317.296-.573.444-1.21.429-1.855.025-.597-.124-1.189-.43-1.703-.285-.438-.672-.801-1.127-1.06zM50.198 6.864c-.498-.282-1.035-.49-1.593-.618-.597-.143-1.201-.263-1.814-.361-.506-.057-.947-.123-1.323-.196-.319-.057-.631-.147-.931-.27-.213-.083-.403-.218-.552-.392-.125-.165-.19-.368-.183-.575 0-.198.046-.393.135-.57.097-.192.24-.358.416-.483.22-.155.465-.27.725-.338.348-.093.707-.137 1.066-.13.544-.027 1.082.124 1.532.43.363.249.593.65.625 1.09l2.977.012c.006-.554-.111-1.102-.342-1.604-.228-.49-.563-.92-.98-1.262-.46-.37-.987-.649-1.551-.822-.665-.204-1.357-.303-2.052-.294-.839-.015-1.676.084-2.487.294-.621.16-1.204.441-1.716.827-.43.331-.772.765-.992 1.261-.217.51-.326 1.058-.319 1.61-.009.42.057.836.196 1.231.119.327.295.63.52.894.216.247.468.46.748.629.281.17.579.312.889.422.306.11.619.197.937.263.315.065.615.118.9.16.572.106 1.083.206 1.532.3.388.076.77.185 1.14.324.268.096.51.25.71.454.165.185.253.426.245.673.004.477-.255.917-.674 1.145-.647.326-1.371.472-2.095.423-.331.003-.662-.043-.98-.135-.283-.08-.552-.204-.797-.367-.218-.144-.403-.332-.545-.552-.131-.2-.205-.433-.214-.673l-2.929-.012c.003.52.116 1.033.33 1.506.234.515.574.974 1 1.347.49.427 1.058.758 1.672.974.756.263 1.553.39 2.353.373.824.008 1.647-.08 2.45-.263.671-.15 1.31-.417 1.886-.79.506-.333.922-.786 1.213-1.317.296-.573.444-1.21.429-1.855.025-.597-.124-1.189-.43-1.703-.285-.438-.672-.801-1.127-1.06zM54.37.863H57.372V13.465H54.37zM71.889 2.443c-.636-.616-1.385-1.103-2.206-1.433-.89-.358-1.84-.537-2.8-.527-.952-.01-1.898.17-2.781.527-.819.331-1.566.818-2.2 1.433-.616.605-1.106 1.328-1.439 2.125-.686 1.665-.686 3.534 0 5.199.334.795.824 1.515 1.44 2.118.633.616 1.38 1.102 2.199 1.433 1.623.635 3.415.698 5.079.177.668-.217 1.3-.533 1.875-.936.536-.378 1.014-.834 1.415-1.354.378-.484.68-1.023.894-1.598h-3.222c-.302.54-.747.984-1.287 1.286-.593.335-1.266.504-1.948.49-.463 0-.924-.08-1.36-.239-.437-.156-.845-.384-1.208-.673-.767-.617-1.287-1.488-1.465-2.456h10.907l.048-.355c.018-.163.026-.326.024-.49.01-1.777-.699-3.482-1.966-4.727zM62.963 5.91c.11-.432.287-.843.526-1.219.232-.366.524-.691.864-.961.346-.272.736-.485 1.152-.629.45-.154.925-.23 1.402-.226.46-.005.92.072 1.353.226.403.146.778.358 1.11.629.328.272.61.597.832.961.232.378.405.79.515 1.219h-7.754zM83.072.863c-.79-.018-1.577.128-2.31.43-.6.253-1.147.618-1.61 1.077l-.27-1.506h-2.414v12.601h2.977V7.427c-.01-.58.079-1.158.264-1.708.157-.464.417-.887.76-1.237.337-.335.745-.59 1.194-.747.505-.174 1.035-.259 1.569-.251l1.482-.012V.86l-1.642.002z" transform="translate(-16 -12) translate(16 12) translate(0 2.526)"/>
                        <path fill="#FF2A00" d="M84.713 12.204c-.002-.22.04-.439.122-.643.081-.2.202-.38.355-.532.158-.157.345-.282.551-.368.457-.18.965-.18 1.422 0 .206.086.393.21.551.368.153.152.274.332.356.532.163.413.163.873 0 1.286-.08.198-.202.377-.356.526-.158.154-.346.274-.55.355-.227.089-.469.132-.712.129-.243.003-.485-.043-.71-.135-.205-.085-.392-.207-.552-.361-.154-.15-.275-.329-.355-.527-.082-.2-.124-.414-.122-.63z" transform="translate(-16 -12) translate(16 12) translate(0 2.526)"/>
                    </g>
                </g>
            </g>
        </g>
    </g>
</svg>
