<svg xmlns="http://www.w3.org/2000/svg" width="183" height="33" viewBox="0 0 183 33">
    <g fill="none" fill-rule="nonzero">
        <path fill="#FFF" d="M52.761 24.583c-4.601 0-8.358-3.169-8.358-8.099 0-4.954 3.757-8.1 8.358-8.1 3.24 0 5.282 1.644 6.456 3.499l-2.747 1.502c-.728-1.103-2.066-2.042-3.709-2.042-2.864 0-4.93 2.183-4.93 5.141s2.066 5.141 4.93 5.141c1.385 0 2.676-.61 3.31-1.197V18.55H51.94v-2.911h7.466v6.01c-1.597 1.784-3.827 2.934-6.644 2.934zm12.208-.281h-2.982V8.642h2.982v15.66zm8.216.281c-3.732 0-5.986-2.746-5.986-5.963 0-3.216 2.254-5.94 5.986-5.94 3.756 0 6.01 2.724 6.01 5.94 0 3.217-2.254 5.963-6.01 5.963zm0-2.653c1.878 0 2.911-1.526 2.911-3.31 0-1.76-1.033-3.286-2.91-3.286-1.855 0-2.888 1.526-2.888 3.286 0 1.784 1.033 3.31 2.887 3.31zm11.222-1.267c.516.728 1.596 1.267 2.582 1.267 1.714 0 2.864-1.338 2.864-3.31 0-1.948-1.15-3.286-2.864-3.286-.986 0-2.066.563-2.582 1.314v4.015zm0 3.639h-2.982V8.642h2.982v5.776a4.3 4.3 0 0 1 3.498-1.737c2.887 0 5.024 2.254 5.024 5.94 0 3.802-2.16 5.962-5.024 5.962-1.362 0-2.606-.61-3.498-1.737v1.456zm20.589 0h-3.005v-1.198c-.775.94-2.113 1.48-3.592 1.48-1.808 0-3.92-1.221-3.92-3.757 0-2.676 2.112-3.662 3.92-3.662 1.526 0 2.84.493 3.592 1.385v-1.432c0-1.15-.986-1.902-2.489-1.902-1.197 0-2.324.47-3.263 1.338l-1.174-2.089c1.385-1.244 3.17-1.784 4.954-1.784 2.605 0 4.977 1.033 4.977 4.296v7.325zm-5.4-1.738c.963 0 1.902-.328 2.395-.986V20.17c-.493-.658-1.432-1.01-2.395-1.01-1.174 0-2.136.634-2.136 1.714s.962 1.69 2.136 1.69zm11.316 1.738h-2.982V8.642h2.982v15.66z"/>
        <path fill="#5A78EA" d="M124.915 24.3h-9.226V8.643h1.948v13.922h7.278V24.3zm6.597.283c-3.38 0-5.799-2.418-5.799-5.963 0-3.287 2.348-5.94 5.587-5.94 3.428 0 5.447 2.676 5.447 6.08v.447h-9.156c.141 2.136 1.62 3.92 4.062 3.92 1.314 0 2.606-.516 3.521-1.455l.845 1.15c-1.15 1.127-2.676 1.76-4.507 1.76zm3.498-6.691c-.024-1.667-1.15-3.756-3.733-3.756-2.418 0-3.615 2.042-3.71 3.756h7.443zm13.968 6.409h-1.76v-1.69c-.846 1.15-2.23 1.972-3.827 1.972-2.958 0-5.048-2.254-5.048-5.94 0-3.639 2.09-5.963 5.048-5.963 1.526 0 2.91.751 3.826 1.996V8.642h1.761v15.659zm-5.141-1.291c1.385 0 2.77-.822 3.38-1.808v-5.118c-.61-.986-1.995-1.83-3.38-1.83-2.3 0-3.662 1.877-3.662 4.39 0 2.511 1.361 4.366 3.662 4.366zm12.63 5.892c-1.902 0-3.216-.375-4.578-1.714l.892-1.267c.94 1.103 2.066 1.526 3.686 1.526 1.878 0 3.662-.916 3.662-3.31v-1.714c-.845 1.15-2.23 2.019-3.826 2.019-2.958 0-5.048-2.207-5.048-5.87 0-3.638 2.066-5.892 5.048-5.892 1.526 0 2.91.751 3.826 1.996v-1.714h1.761v11.175c0 3.591-2.653 4.765-5.423 4.765zm.282-6.033c1.385 0 2.746-.845 3.38-1.831V16.06c-.634-.963-1.995-1.808-3.38-1.808-2.301 0-3.663 1.808-3.663 4.32 0 2.488 1.362 4.296 3.663 4.296zm13.217 1.714c-3.38 0-5.799-2.418-5.799-5.963 0-3.287 2.348-5.94 5.588-5.94 3.427 0 5.446 2.676 5.446 6.08v.447h-9.156c.141 2.136 1.62 3.92 4.062 3.92 1.314 0 2.606-.516 3.521-1.455l.845 1.15c-1.15 1.127-2.676 1.76-4.507 1.76zm3.498-6.691c-.024-1.667-1.15-3.756-3.733-3.756-2.418 0-3.615 2.042-3.71 3.756h7.443zm5.751 6.409h-1.76V12.96h1.76v1.809c.916-1.174 2.23-2.066 3.78-2.066v1.807c-.211-.023-.422-.047-.68-.047-1.104 0-2.583.892-3.1 1.808v8.029z"/>
        <g>
            <path fill="#FFF" d="M25.802 21.24l-2.268-2.268-5.322 5.322-2.866-2.867 8.189-8.189 2.866 2.867 2.233 2.234c.493.492.832 1.08 1.018 1.704a4.054 4.054 0 0 1-1.002 4.082l-7.572 7.573a2.186 2.186 0 0 1-.041.041l-.003.002a4.054 4.054 0 0 1-5.689-.043L.11 16.463l-.11-.11L15.066 1.287a4.054 4.054 0 0 1 5.733 0L5.733 16.353l12.478 12.478 7.591-7.59z"/>
            <path fill="#5A78EA" d="M25.945 6.054l10.24 10.24-2.867 2.867-10.24-10.24-10.447 10.447-2.866-2.867L23.079 3.188z"/>
        </g>
    </g>
</svg>

