<?xml version="1.0" encoding="UTF-8"?>
<svg width="123px" height="24px" viewBox="0 0 123 24" version="1.1" xmlns="http://www.w3.org/2000/svg" xmlns:xlink="http://www.w3.org/1999/xlink">
    <title>Group</title>
    <g id="Archive" stroke="none" stroke-width="1" fill="none" fill-rule="evenodd">
        <g id="Group">
            <g id="pictorial">
                <rect id="Rectangle" fill="#5A78EA" x="0" y="0" width="24" height="24" rx="3"></rect>
                <path d="M15.7397748,6.32922154 C16.7257155,6.32922154 17.5249784,7.12848444 17.5249784,8.11442519 L8.14224991,8.11442519 L8.14224991,15.8854576 L12.8697169,15.8854576 L12.8697169,14.4729418 L9.55540177,14.4729418 L9.55540177,12.6877382 L14.6553475,12.6877382 L14.6553475,14.4729418 L14.6549205,15.8639152 C14.6549205,16.1705583 14.5776072,16.4591439 14.44141,16.7112425 C14.1433584,17.281493 13.5462447,17.6706975 12.8582274,17.6706975 L8.11522956,17.6706975 C7.14174761,17.6562348 6.35704626,16.8625934 6.35704626,15.8856753 L6.35704626,6.32922154 L15.7397748,6.32922154 Z M17.6428728,9.41607226 L17.6428728,17.57829 L15.8576692,17.57829 L15.8576692,11.2012759 L9.35152339,11.2012759 L9.35152339,9.41607226 L17.6428728,9.41607226 Z" id="Combined-Shape-Copy-2" fill="#FFFFFF" fill-rule="nonzero" transform="translate(11.999960, 11.999960) rotate(-45.000000) translate(-11.999960, -11.999960) "></path>
            </g>
            <path d="M37.4510765,16.5652888 C34.449922,16.5652888 32,14.4981671 32,11.2826444 C32,8.05180971 34.449922,6 37.4510765,6 C39.5641343,6 40.8962794,7.07184089 41.6618801,8.2814899 L39.8703746,9.26145872 C39.3957022,8.54179412 38.5229174,7.92931361 37.4510765,7.92931361 C35.583011,7.92931361 34.2355539,9.3533308 34.2355539,11.2826444 C34.2355539,13.211958 35.583011,14.6359752 37.4510765,14.6359752 C38.3544853,14.6359752 39.196646,14.2378629 39.6100704,13.8550626 L39.6100704,12.6301015 L36.9151561,12.6301015 L36.9151561,10.731412 L41.7843762,10.731412 L41.7843762,14.6512872 C40.7431593,15.8150002 39.2885181,16.5652888 37.4510765,16.5652888 Z M45.4133232,16.3815447 L43.4686975,16.3815447 L43.4686975,6.16843214 L45.4133232,6.16843214 L45.4133232,16.3815447 Z M50.7725277,16.5652888 C48.3379176,16.5652888 46.8679644,14.7737833 46.8679644,12.6760376 C46.8679644,10.5782918 48.3379176,8.80209833 50.7725277,8.80209833 C53.2224497,8.80209833 54.6924029,10.5782918 54.6924029,12.6760376 C54.6924029,14.7737833 53.2224497,16.5652888 50.7725277,16.5652888 Z M50.7725277,14.8350314 C51.9974887,14.8350314 52.6712172,13.8397505 52.6712172,12.6760376 C52.6712172,11.5276366 51.9974887,10.5323558 50.7725277,10.5323558 C49.5628786,10.5323558 48.8891501,11.5276366 48.8891501,12.6760376 C48.8891501,13.8397505 49.5628786,14.8350314 50.7725277,14.8350314 Z M58.0916698,14.0081827 C58.428534,14.4828551 59.1328866,14.8350314 59.7759912,14.8350314 C60.8937681,14.8350314 61.6440567,13.9622467 61.6440567,12.6760376 C61.6440567,11.4051405 60.8937681,10.5323558 59.7759912,10.5323558 C59.1328866,10.5323558 58.428534,10.8998441 58.0916698,11.3898285 L58.0916698,14.0081827 Z M58.0916698,16.3815447 L56.1470441,16.3815447 L56.1470441,6.16843214 L58.0916698,6.16843214 L58.0916698,9.93518729 C58.6735262,9.16958664 59.5003749,8.80209833 60.3731596,8.80209833 C62.2565372,8.80209833 63.6499304,10.2720516 63.6499304,12.6760376 C63.6499304,15.1565836 62.2412252,16.5652888 60.3731596,16.5652888 C59.4850629,16.5652888 58.6735262,16.1671765 58.0916698,15.4321999 L58.0916698,16.3815447 Z M71.5203051,16.3815447 L69.5603674,16.3815447 L69.5603674,15.600632 C69.0550707,16.2131125 68.182286,16.5652888 67.2176294,16.5652888 C66.0386044,16.5652888 64.6605232,15.7690641 64.6605232,14.1153668 C64.6605232,12.3697973 66.0386044,11.7266928 67.2176294,11.7266928 C68.21291,11.7266928 69.0703827,12.0482451 69.5603674,12.6301015 L69.5603674,11.6960688 C69.5603674,10.9457801 68.9172629,10.4557957 67.937294,10.4557957 C67.1563813,10.4557957 66.4214047,10.762036 65.8089242,11.3285804 L65.0433236,9.96581129 C65.9467323,9.15427463 67.1104453,8.80209833 68.2741581,8.80209833 C69.9737915,8.80209833 71.5203051,9.4758269 71.5203051,11.6041967 L71.5203051,16.3815447 Z M67.998542,15.2484557 C68.6263346,15.2484557 69.238815,15.0340875 69.5603674,14.6053512 L69.5603674,13.6866304 C69.238815,13.2578941 68.6263346,13.0282138 67.998542,13.0282138 C67.2329414,13.0282138 66.6051489,13.4416382 66.6051489,14.1459908 C66.6051489,14.8503434 67.2329414,15.2484557 67.998542,15.2484557 Z M104.984604,8.80168046 C105.979885,8.80168046 106.883294,9.29166487 107.480463,10.1032015 L107.480463,8.98542462 L108.628864,8.98542462 L108.628864,16.2739427 C108.628864,18.6166807 106.898606,19.3822813 105.091789,19.3822813 C103.851515,19.3822813 102.994043,19.1372891 102.105946,18.2645044 L102.687802,17.4376557 C103.300283,18.1573203 104.03526,18.4329365 105.091789,18.4329365 C106.316749,18.4329365 107.480463,17.835768 107.480463,16.2739427 L107.480463,15.1561657 C106.92923,15.9064544 106.025821,16.4729988 104.984604,16.4729988 C103.055291,16.4729988 101.692521,15.0336697 101.692521,12.6449957 C101.692521,10.2716337 103.039979,8.80168046 104.984604,8.80168046 Z M88.6773106,8.80168046 C90.9128647,8.80168046 92.2296976,10.5472499 92.2296976,12.7674918 L92.2296976,13.05842 L86.2580127,13.05842 C86.3498848,14.4518132 87.3145417,15.6155261 88.9069909,15.6155261 C89.7644636,15.6155261 90.6066243,15.2786619 91.2037931,14.6661814 L91.7550254,15.41647 C91.0047368,16.1514466 90.0094559,16.5648709 88.8151188,16.5648709 C86.6101891,16.5648709 85.0330519,14.9877336 85.0330519,12.6756197 C85.0330519,10.5319379 86.5642531,8.80168046 88.6773106,8.80168046 Z M100.207256,6.16801427 L100.207256,16.3811268 L99.0588556,16.3811268 L99.0588556,15.2786619 C98.5076229,16.0289505 97.6042142,16.5648709 96.5629972,16.5648709 C94.6336839,16.5648709 93.2709146,15.0949177 93.2709146,12.6909317 C93.2709146,10.3175697 94.6336839,8.80168046 96.5629972,8.80168046 C97.5582781,8.80168046 98.4616869,9.29166487 99.0588556,10.1032015 L99.0588556,6.16801427 L100.207256,6.16801427 Z M113.758388,8.80168046 C115.993942,8.80168046 117.310775,10.5472499 117.310775,12.7674918 L117.310775,13.05842 L111.33909,13.05842 C111.430962,14.4518132 112.395618,15.6155261 113.988068,15.6155261 C114.84554,15.6155261 115.687701,15.2786619 116.28487,14.6661814 L116.836102,15.41647 C116.085814,16.1514466 115.090533,16.5648709 113.896196,16.5648709 C111.691266,16.5648709 110.114129,14.9877336 110.114129,12.6756197 C110.114129,10.5319379 111.64533,8.80168046 113.758388,8.80168046 Z M75.3789321,6.16843214 L75.3789321,16.3815447 L73.4343064,16.3815447 L73.4343064,6.16843214 L75.3789321,6.16843214 Z M79.7657195,6.16801427 L79.7657195,15.2480378 L84.5124432,15.2480378 L84.5124432,16.3811268 L78.4948223,16.3811268 L78.4948223,6.16801427 L79.7657195,6.16801427 Z M122.394363,8.81699248 L122.394363,9.99601747 C122.256555,9.98070545 122.118747,9.96539343 121.950314,9.96539343 C121.23065,9.96539343 120.265993,10.5472499 119.929129,11.1444184 L119.929129,16.3811268 L118.780728,16.3811268 L118.780728,8.98542462 L119.929129,8.98542462 L119.929129,10.1644496 C120.526297,9.39884896 121.38377,8.81699248 122.394363,8.81699248 Z M96.8539256,9.82758533 C95.3533484,9.82758533 94.4652517,11.0525464 94.4652517,12.6909317 C94.4652517,14.3293171 95.3533484,15.5389661 96.8539256,15.5389661 C97.7573344,15.5389661 98.6607431,15.0030456 99.0588556,14.3599411 L99.0588556,11.0219223 C98.6607431,10.3788178 97.7573344,9.82758533 96.8539256,9.82758533 Z M105.275532,9.82758533 C103.774955,9.82758533 102.886859,11.0066103 102.886859,12.6449957 C102.886859,14.268069 103.774955,15.447094 105.275532,15.447094 C106.178941,15.447094 107.067038,14.8958615 107.480463,14.252757 L107.480463,11.0066103 C107.067038,10.3788178 106.178941,9.82758533 105.275532,9.82758533 Z M88.6619986,9.75102527 C87.0848614,9.75102527 86.3039488,11.0831704 86.2427007,12.2009473 L91.0966089,12.2009473 C91.0812969,11.1137944 90.3463204,9.75102527 88.6619986,9.75102527 Z M113.743076,9.75102527 C112.165938,9.75102527 111.385026,11.0831704 111.323778,12.2009473 L116.177686,12.2009473 C116.162374,11.1137944 115.427397,9.75102527 113.743076,9.75102527 Z" id="Global-" fill="#1B1F3B" fill-rule="nonzero"></path>
        </g>
    </g>
</svg>