<?xml version="1.0" encoding="UTF-8" standalone="no"?>
<svg xmlns:dc="http://purl.org/dc/elements/1.1/"
     xmlns:cc="http://creativecommons.org/ns#"
     xmlns:rdf="http://www.w3.org/1999/02/22-rdf-syntax-ns#"
     xmlns:svg="http://www.w3.org/2000/svg"
     xmlns="http://www.w3.org/2000/svg"
     xmlns:sodipodi="http://sodipodi.sourceforge.net/DTD/sodipodi-0.dtd"
     xmlns:inkscape="http://www.inkscape.org/namespaces/inkscape" width="36" height="28" viewBox="0 0 36 28"
     version="1.1" id="svg4" sodipodi:docname="combined-shape-copy.svg"
     inkscape:version="0.92.4 (5da689c313, 2019-01-14)">
    <metadata id="metadata10">
        <rdf:RDF>
            <cc:Work rdf:about="">
                <dc:format>image/svg+xml</dc:format>
                <dc:type rdf:resource="http://purl.org/dc/dcmitype/StillImage"/>
                <dc:title></dc:title>
            </cc:Work>
        </rdf:RDF>
    </metadata>
    <defs id="defs8"/>
    <sodipodi:namedview pagecolor="#ffffff" bordercolor="#666666" borderopacity="1" objecttolerance="10"
                        gridtolerance="10" guidetolerance="10" inkscape:pageopacity="0" inkscape:pageshadow="2"
                        inkscape:window-width="1920" inkscape:window-height="1017" id="namedview6" showgrid="false"
                        inkscape:zoom="11.833333" inkscape:cx="12" inkscape:cy="9" inkscape:window-x="-8"
                        inkscape:window-y="-8" inkscape:window-maximized="1" inkscape:current-layer="svg4"/>
    <path d="m 32.622507,0.11267599 c 1.887,0 3.4245,1.64101421 3.4245,3.65809401 v 3.8414646 h -7.7985 c -3.336001,0 -6.060001,2.9075164 -6.060001,6.4708164 0,3.561748 2.724,6.470817 6.060001,6.470817 h 7.836 v 3.872546 c 0,2.017079 -1.5375,3.658093 -3.426,3.658093 H 3.5105071 c -1.8900001,0 -3.42600009,-1.641014 -3.42600009,-3.658093 V 3.77077 c 0,-2.0170798 1.53750009,-3.65809401 3.42600009,-3.65809401 z m 3.462,8.99138931 v 9.9890527 h -7.731 c -2.5365,0 -4.585501,-2.262611 -4.585501,-4.994526 0,-2.731915 2.049001,-4.9945267 4.555501,-4.9945267 z m -7.470001,2.2626117 c -1.328999,0 -2.397,1.163939 -2.397,2.610703 0,1.446766 1.068001,2.610705 2.395501,2.610705 1.329,0 2.396999,-1.163939 2.396999,-2.610705 0,-1.446764 -1.067999,-2.610703 -2.396999,-2.610703 z"
          id="path2" inkscape:connector-curvature="0" style="fill:#bbb;fill-rule:nonzero;stroke-width:1.52675664"/>
</svg>
