<svg xmlns="http://www.w3.org/2000/svg" width="465" height="250" viewBox="0 0 465 250">
    <g fill="none" fill-rule="evenodd">
        <path fill="#1B1F3B" fill-rule="nonzero" d="M464.875 156.51h-27.38V192h-37.948v-35.49H309v-26.316L388.258 23h40.83l-73.494 101.641h45.153V93.014h36.747v31.627h27.38z"/>
        <g>
            <circle cx="234" cy="107" r="61" stroke="#5A78EA" stroke-opacity=".26" stroke-width="12"/>
            <path fill="#5A78EA" d="M186 0c12.703 0 23 10.297 23 23 0 .796-.04 1.582-.12 2.357l87.429 19.702C300.147 32.297 311.988 23 326 23c17.12 0 31 13.88 31 31 0 11.013-5.743 20.685-14.398 26.184l14.073 23.587A15.932 15.932 0 0 1 364 102c8.837 0 16 7.163 16 16s-7.163 16-16 16-16-7.163-16-16l.004-.36-27.148-2.315c-.874 5.484-5.626 9.675-11.356 9.675-1.146 0-2.253-.168-3.297-.48l-14.892 44.028C299.906 171.88 306 180.228 306 190c0 12.703-10.297 23-23 23-8.049 0-15.132-4.134-19.242-10.395l-40.518 24.092A15.932 15.932 0 0 1 225 234c0 8.837-7.163 16-16 16s-16-7.163-16-16 7.163-16 16-16c5.49 0 10.334 2.765 13.216 6.978l40.519-24.091A22.898 22.898 0 0 1 260 190c0-12.703 10.297-23 23-23 2.227 0 4.38.317 6.418.907l14.924-44.126A11.5 11.5 0 0 1 298 113.5l.001-.124-8.284-.706C286.875 140.935 263.014 163 234 163c-20.402 0-38.256-10.91-48.046-27.215l-32.398 18.562A15.941 15.941 0 0 1 155 161c0 8.837-7.163 16-16 16s-16-7.163-16-16c0-6.944 4.424-12.856 10.608-15.069l-15.897-44.925A22.998 22.998 0 0 1 111 102c-12.703 0-23-10.297-23-23s10.297-23 23-23 23 10.297 23 23c0 9.663-5.96 17.935-14.404 21.34l15.938 45.037A16.058 16.058 0 0 1 139 145c1.348 0 2.656.167 3.906.48l34.569-101.112c-8.37-3.342-14.317-11.461-14.472-20.988L163 23c0-12.703 10.297-23 23-23zm22.591 27.34C206.561 37.968 197.219 46 186 46c-2.308 0-4.537-.34-6.639-.973L144.813 146.09a16.056 16.056 0 0 1 7.797 6.494l32.345-18.532C180.523 126.032 178 116.811 178 107c0-30.928 25.072-56 56-56 20.466 0 38.368 10.98 48.138 27.369l16.637-9.531A30.861 30.861 0 0 1 295 54c0-2.41.275-4.755.795-7.007L208.591 27.34zm132.29 53.862A30.861 30.861 0 0 1 326 85c-2.13 0-4.21-.215-6.219-.624l-6.21 18.365c4.291 1.625 7.357 5.744 7.428 10.589l27.173 2.316a16 16 0 0 1 6.786-10.848L340.88 81.202zM299.79 70.56l-16.659 9.545C287.51 88.088 290 97.253 290 107c0 1.235-.04 2.46-.119 3.676l8.313.709c.993-5.341 5.677-9.385 11.306-9.385.732 0 1.448.068 2.142.2l6.185-18.289c-7.55-2.058-13.952-6.898-18.037-13.35z"/>
            <path fill="#1B1F3B" d="M155.875 156.51h-27.38V192H90.546v-35.49H0v-26.316L79.258 23h40.83L46.594 124.641h45.153V93.014h36.747v31.627h27.38z"/>
        </g>
    </g>
</svg>
