<svg xmlns="http://www.w3.org/2000/svg">
  <!-- dots -->
  <g id="dots-menu">
    <circle cx="2" cy="2" r="2"/>
    <circle cx="2" cy="8" r="2"/>
    <circle cx="2" cy="14" r="2"/>
  </g>
  <!-- export -->
    <g id="export">
        <path d="M19.307 12.495c.347 0 .634.282.68.65l.006.102.007 6.49c0 .923-.647 1.679-1.469 1.752l-.131.006H5.6c-.84 0-1.528-.71-1.595-1.613L4 19.738v-6.49c0-.416.307-.753.686-.753.347 0 .634.283.68.65l.006.103v6.49c0 .119.075.219.176.245l.052.006h12.8c.108 0 .199-.082.222-.193l.006-.058-.006-6.49c0-.415.306-.753.685-.753zM12 2c.41 0 .744.333.744.744V13.46l3.491-3.491c.29-.29.762-.29 1.052 0 .29.29.29.761 0 1.052l-4.76 4.761c-.291.29-.762.29-1.053 0l-4.761-4.761c-.146-.145-.218-.336-.218-.526s.072-.381.218-.526c.29-.29.761-.29 1.052 0l3.491 3.49V2.745c0-.41.333-.744.744-.744z" transform="translate(-16 -137) translate(0 89) translate(16 48) matrix(1 0 0 -1 0 23.495)"/>
    </g>
  <!-- import -->
    <g id="import">
        <path d="M19.307 12.495c.347 0 .634.282.68.65l.006.102.007 6.49c0 .923-.647 1.679-1.469 1.752l-.131.006H5.6c-.84 0-1.528-.71-1.595-1.613L4 19.738v-6.49c0-.416.307-.753.686-.753.347 0 .634.283.68.65l.006.103v6.49c0 .119.075.219.176.245l.052.006h12.8c.108 0 .199-.082.222-.193l.006-.058-.006-6.49c0-.415.306-.753.685-.753zM12 2c.41 0 .744.333.744.744V13.46l3.491-3.491c.29-.29.762-.29 1.052 0 .29.29.29.761 0 1.052l-4.76 4.761c-.291.29-.762.29-1.053 0l-4.761-4.761c-.146-.145-.218-.336-.218-.526s.072-.381.218-.526c.29-.29.761-.29 1.052 0l3.491 3.49V2.745c0-.41.333-.744.744-.744z" transform="translate(-16 -105) translate(0 89) translate(16 16) matrix(1 0 0 -1 0 24) matrix(1 0 0 -1 0 23.495)"/>
    </g>
  <!-- find-route -->
    <g id="find-route">
        <path d="M12.25 3c.276 0 .5.224.5.5v1.037c3.543.352 6.36 3.17 6.713 6.713H20.5c.276 0 .5.224.5.5v.5c0 .276-.224.5-.5.5h-1.037c-.352 3.543-3.17 6.36-6.713 6.713V20.5c0 .276-.224.5-.5.5h-.5c-.276 0-.5-.224-.5-.5v-1.037c-3.543-.352-6.361-3.17-6.713-6.714L3.5 12.75c-.276 0-.5-.224-.5-.5v-.5c0-.276.224-.5.5-.5h1.037c.352-3.544 3.17-6.361 6.714-6.713L11.25 3.5c0-.276.224-.5.5-.5h.5zm.5 3.047V7c0 .276-.224.5-.5.5h-.5c-.276 0-.5-.224-.5-.5v-.954c-2.714.339-4.865 2.49-5.203 5.203L7 11.25c.276 0 .5.224.5.5v.5c0 .276-.224.5-.5.5h-.954c.339 2.714 2.49 4.865 5.204 5.204V17c0-.276.224-.5.5-.5h.5c.276 0 .5.224.5.5v.953c2.715-.338 4.865-2.49 5.204-5.203H17c-.276 0-.5-.224-.5-.5v-.5c0-.276.224-.5.5-.5h.953c-.338-2.714-2.489-4.865-5.202-5.203z" transform="translate(-797 -60) translate(0 56) translate(426 4) translate(371)"/>
    </g>
  <!-- tracing -->
  <g fill-rule="evenodd" id="tracing">
    <path d="M5 2a2.5 2.5 0 1 1 0 5 2.5 2.5 0 0 1 0-5zm0 1a1.5 1.5 0 1 0 0 3 1.5 1.5 0 0 0 0-3zM10 7a3.5 3.5 0 1 1 0 7 3.5 3.5 0 0 1 0-7zm0 1a2.5 2.5 0 1 0 0 5 2.5 2.5 0 0 0 0-5z"/>
    <path d="M5.962 6.141L7.872 8.3l.708-.707-1.911-2.158z"/>
    <path fill-rule="nonzero" d="M2 0h12a2 2 0 0 1 2 2v12a2 2 0 0 1-2 2H2a2 2 0 0 1-2-2V2a2 2 0 0 1 2-2zm0 1a1 1 0 0 0-1 1v12a1 1 0 0 0 1 1h12a1 1 0 0 0 1-1V2a1 1 0 0 0-1-1H2z"/>
  </g>
  <!-- view -->
    <g id="view">
        <path d="M19.5 2C20.88 2 22 3.12 22 4.5v15c0 1.38-1.12 2.5-2.5 2.5h-15C3.12 22 2 20.88 2 19.5v-15C2 3.12 3.12 2 4.5 2h15zM12 4.5c-.69 0-1.25.56-1.25 1.25 0 .09.01.178.028.263L5.954 9.517C5.888 9.506 5.82 9.5 5.75 9.5c-.69 0-1.25.56-1.25 1.25 0 .569.38 1.049.9 1.2l1.818 5.594c-.137.2-.218.444-.218.706 0 .69.56 1.25 1.25 1.25.534 0 .99-.335 1.17-.807h5.16c.18.472.636.807 1.17.807.69 0 1.25-.56 1.25-1.25 0-.262-.08-.505-.218-.706L18.6 11.95c.52-.151.9-.631.9-1.2 0-.69-.56-1.25-1.25-1.25-.07 0-.138.006-.204.017l-4.824-3.503c.018-.085.028-.173.028-.264 0-.69-.56-1.25-1.25-1.25zm.375 2.443l4.69 3.407c-.042.125-.065.26-.065.4l.006.128c.031.302.17.572.376.771l-1.74 5.356.108-.005c-.382 0-.725.172-.954.442H9.204c-.207-.245-.508-.408-.846-.437l-1.74-5.356c.236-.227.382-.546.382-.899 0-.14-.023-.275-.065-.4l4.69-3.407c.119.037.244.057.375.057.13 0 .256-.02.375-.057zM4.5 3.25c-.69 0-1.25.56-1.25 1.25v15c0 .69.56 1.25 1.25 1.25h15c.69 0 1.25-.56 1.25-1.25v-15c0-.69-.56-1.25-1.25-1.25h-15z" transform="translate(-102 -56) translate(0 50) translate(16 6) translate(86)"/>
    </g>
  <!-- add -->
    <g id="add">
        <path d="M19.2 11.2h-6.4V4.8c0-.442-.358-.8-.8-.8-.442 0-.8.358-.8.8v6.4H4.8c-.442 0-.8.358-.8.8 0 .442.358.8.8.8h6.4v6.4c0 .442.358.8.8.8.442 0 .8-.358.8-.8v-6.4h6.4c.442 0 .8-.358.8-.8 0-.442-.358-.8-.8-.8z" transform="translate(-931 -60) translate(0 56) translate(426 4) translate(505)"/>
    </g>
  <!-- show -->
  <g fill-rule="nonzero" id="show">
    <path stroke="#1B1F3B" stroke-width=".5" d="M8 4.174C4.791 4.174 1.883 6.93 1.883 8c0 1.071 2.908 3.826 6.117 3.826S14.117 9.07 14.117 8c0-1.071-2.908-3.826-6.117-3.826zm0 7.08c-3.054 0-5.546-2.617-5.546-3.254S4.946 4.746 8 4.746c3.054 0 5.546 2.617 5.546 3.254S11.054 11.254 8 11.254zm0-5.64A2.39 2.39 0 0 0 5.614 8 2.39 2.39 0 0 0 8 10.386 2.39 2.39 0 0 0 10.386 8 2.39 2.39 0 0 0 8 5.614zm0 4.2C7 9.814 6.186 9 6.186 8S7 6.186 8 6.186 9.814 7 9.814 8 9 9.814 8 9.814z"/>
    <path d="M2 0h12a2 2 0 0 1 2 2v12a2 2 0 0 1-2 2H2a2 2 0 0 1-2-2V2a2 2 0 0 1 2-2zm0 1a1 1 0 0 0-1 1v12a1 1 0 0 0 1 1h12a1 1 0 0 0 1-1V2a1 1 0 0 0-1-1H2z"/>
  </g>
    <!-- right -->
    <g id="right" fill="#091540">
        <path d="M16.936 8.75l-4.93 4.618-4.941-4.617c-.358-.335-.925-.335-1.282 0-.377.352-.377.938 0 1.29l5.571 5.208c.176.165.401.251.641.251.233 0 .467-.088.642-.25l5.571-5.208c.385-.339.393-.934.01-1.291-.357-.335-.924-.335-1.282 0z" transform="translate(-123 -135) translate(0 87) translate(16 48) matrix(0 1 1 0 108 0)"/>
    </g>
    <!-- left -->
    <g id="left" fill="#091540">
        <path d="M16.936 8.751l-4.93 4.618L7.063 8.75c-.357-.334-.924-.334-1.282 0-.377.353-.377.94 0 1.291l5.572 5.208c.175.164.4.25.64.25.233 0 .468-.087.642-.25l5.572-5.208c.385-.338.392-.933.01-1.29-.358-.335-.925-.335-1.282 0z" transform="translate(-1348 -862) translate(1060 56) translate(16 361) translate(0 104) translate(0 337) translate(268) rotate(90 12 16)"/>
    </g>

  <!-- report -->
  <g fill-rule="evenodd" id="report">
    <g transform="translate(7 3)">
      <path d="M0 0h2l-.402 6H.418z"/>
      <circle cx="1" cy="8" r="1"/>
    </g>
    <path fill-rule="nonzero" d="M2 0h12a2 2 0 0 1 2 2v12a2 2 0 0 1-2 2H2a2 2 0 0 1-2-2V2a2 2 0 0 1 2-2zm0 1a1 1 0 0 0-1 1v12a1 1 0 0 0 1 1h12a1 1 0 0 0 1-1V2a1 1 0 0 0-1-1H2z"/>
  </g>
    <!-- hide-small -->
    <g fill-rule="nonzero" id="hide-small">
        <path d="M14.618.649L.65 14.792a.5.5 0 0 0 .712.702L15.329 1.351a.5.5 0 1 0-.711-.702z"/>
        <path stroke="#1B1F3B" stroke-width=".5" d="M8 4.174C4.791 4.174 1.883 6.93 1.883 8c0 1.071 2.908 3.826 6.117 3.826S14.117 9.07 14.117 8c0-1.071-2.908-3.826-6.117-3.826zm0 7.08c-3.054 0-5.546-2.617-5.546-3.254S4.946 4.746 8 4.746c3.054 0 5.546 2.617 5.546 3.254S11.054 11.254 8 11.254zm0-5.64A2.39 2.39 0 0 0 5.614 8 2.39 2.39 0 0 0 8 10.386 2.39 2.39 0 0 0 10.386 8 2.39 2.39 0 0 0 8 5.614zm0 4.2C7 9.814 6.186 9 6.186 8S7 6.186 8 6.186 9.814 7 9.814 8 9 9.814 8 9.814z"/>
        <path d="M2 0h12a2 2 0 0 1 2 2v12a2 2 0 0 1-2 2H2a2 2 0 0 1-2-2V2a2 2 0 0 1 2-2zm0 1a1 1 0 0 0-1 1v12a1 1 0 0 0 1 1h12a1 1 0 0 0 1-1V2a1 1 0 0 0-1-1H2z"/>
    </g>
  <!-- hide -->
    <g id="hide">
        <path d="M21.476 11.626c-1.129-1.48-2.485-2.77-4.018-3.826l2.622-2.622c.264-.255.271-.675.016-.94-.255-.263-.675-.27-.94-.015l-.016.016L16.276 7.1c-1.22-.67-2.583-1.035-3.974-1.063-5.05 0-9.009 5.36-9.175 5.59-.17.232-.17.548 0 .78 1.13 1.48 2.485 2.771 4.018 3.827l-2.621 2.622c-.264.254-.272.675-.017.939.255.264.676.271.94.016l.016-.016 2.864-2.862c1.22.671 2.583 1.036 3.975 1.063 5.049 0 9.008-5.36 9.174-5.588.17-.233.17-.549 0-.782zM8.111 15.27c-1.353-.902-2.566-1.998-3.6-3.253.978-1.185 4.15-4.65 7.79-4.65 1.037.02 2.055.27 2.983.73L14.131 9.25c-1.526-1.013-3.585-.597-4.598.93-.738 1.11-.738 2.556 0 3.668L8.111 15.27zm5.985-4.107c.13.266.198.558.199.854 0 1.1-.893 1.993-1.993 1.993-.296-.001-.588-.07-.854-.2l2.648-2.647zm-3.588 1.708c-.13-.266-.198-.558-.2-.854 0-1.1.893-1.993 1.994-1.993.296 0 .588.069.853.2l-2.647 2.647zm1.794 3.797c-1.036-.021-2.055-.27-2.983-.731l1.154-1.154c1.526 1.014 3.584.598 4.597-.928.738-1.112.738-2.557 0-3.67l1.422-1.42c1.353.9 2.567 1.997 3.6 3.252-.978 1.185-4.15 4.65-7.79 4.65z" transform="translate(-426 -60) translate(0 56) translate(426 4)"/>
    </g>
  <!-- unhide -->
    <g id="unhide">
        <path d="M21.476 11.626c-1.129-1.48-2.485-2.77-4.018-3.826l-1.182-.7c-1.22-.67-2.583-1.035-3.974-1.063-5.05 0-9.009 5.36-9.175 5.59-.17.232-.17.548 0 .78 1.13 1.48 2.485 2.771 4.018 3.827l1.182.7c1.22.67 2.583 1.035 3.975 1.062 5.049 0 9.008-5.36 9.174-5.588.17-.233.17-.549 0-.782zm-12.284 4.27c-.017.017-.377-.226-1.08-.626-1.354-.902-2.567-1.998-3.601-3.253.978-1.185 4.15-4.65 7.79-4.65 1.037.02 2.055.27 2.983.73M14.131 9.25c-1.526-1.013-3.585-.597-4.598.93-.738 1.11-.62 2.719.118 3.83m3.504-3.787c.023-.022.318.15.554.396.096.1.225.282.387.544.13.266.198.558.199.854 0 1.1-.893 1.993-1.993 1.993-.296-.001-.588-.07-.854-.2m0 0c-.119-.056-.324-.16-.6-.463-.086-.095-.203-.244-.34-.476-.13-.266-.198-.558-.2-.854 0-1.1.893-1.993 1.994-1.993.296 0 .588.069.853.2M9.651 14.01c.013-.012.101.168.31.37.084.082.255.217.512.403 1.526 1.014 3.584.598 4.597-.928.738-1.112.738-2.557 0-3.67-.2-.263-.342-.438-.428-.522-.316-.313-.51-.407-.511-.413m1.153-1.153c.037-.037.44.185 1.208.667 1.353.902 2.567 1.998 3.6 3.253-.978 1.185-4.15 4.65-7.79 4.65-1.036-.02-2.182-.311-3.11-.772" transform="translate(-513 -60) translate(0 56) translate(426 4) translate(87)"/>
    </g>
  <!-- lock -->
    <g id="lock">
        <path d="M11.572 4c2.17 0 3.927 1.774 3.927 3.96v1.858h.41c1.205 0 2.182.977 2.182 2.182v5.818c0 1.205-.977 2.182-2.182 2.182H7.182C5.977 20 5 19.023 5 17.818V12c0-1.205.977-2.182 2.182-2.182h.462V7.96c0-2.117 1.65-3.849 3.726-3.955zm4.337 7.273H7.182c-.402 0-.727.325-.727.727v5.818c0 .402.325.727.727.727h8.727c.402 0 .727-.325.727-.727V12c0-.402-.325-.727-.727-.727zm-4.337-5.818c-1.364 0-2.473 1.12-2.473 2.505v1.858h4.945V7.96c0-1.33-1.021-2.415-2.31-2.5z" transform="translate(-606 -60) translate(0 56) translate(426 4) translate(180)"/>
    </g>
  <!-- unlock -->
    <g id="unlock">
        <path d="M11.572 4c2.035 0 3.706 1.56 3.907 3.555l.008.113-.014.07c-.076.278-.312.489-.602.528l-.1.007c-.334 0-.616-.226-.7-.534l-.004-.016c-.015-.023-.038-.109-.06-.207l-.012-.06c-.23-1.143-1.23-2.001-2.423-2.001-1.31 0-2.384 1.032-2.468 2.34L9.1 7.96v1.858h6.81c1.205 0 2.182.977 2.182 2.182v5.818c0 1.205-.977 2.182-2.182 2.182H7.182C5.977 20 5 19.023 5 17.818V12c0-1.205.977-2.182 2.182-2.182h.462V7.96c0-2.117 1.65-3.849 3.726-3.955L11.572 4zm4.337 7.273H7.182c-.402 0-.727.325-.727.727v5.818c0 .402.325.727.727.727h8.727c.402 0 .727-.325.727-.727V12c0-.402-.325-.727-.727-.727z" transform="translate(-693 -60) translate(0 56) translate(426 4) translate(267)"/>
    </g>
  <!-- unknown -->
  <g id="unknown">
    <rect fill="none" id="canvas_background" height="18" width="18" y="-1" x="-1"/>
    <path stroke="null" id="svg_2" d="m7.867278,0c-4.338071,0 -7.867278,3.52914 -7.867278,7.867278c0,4.337937 3.529208,7.867278 7.867278,7.867278c4.338071,0 7.867278,-3.529342 7.867278,-7.867278c0,-4.338138 -3.529208,-7.867278 -7.867278,-7.867278zm0,1.044175c1.251306,0 2.423906,0.340253 3.433191,0.930445l-3.390248,2.577627l-3.473852,-2.579103c1.008681,-0.58932 2.18061,-0.928968 3.430909,-0.928968zm-2.503484,3.133868l1.537545,1.141333l-0.96037,0.69842l-0.577175,-1.839753zm0.27396,5.035418l-2.053527,0.020196l1.692608,-1.22903l0.360919,1.208833zm1.959053,-2.893523l0.311803,-0.226656l0.937423,0.669703l0.585159,0.434525l-0.622734,1.984819l-1.868874,0.018385l-0.603209,-1.922686l1.260431,-0.958089zm1.331286,-1.01217l1.439045,-1.09423l-0.548524,1.748702l-0.24484,-0.174991l-0.645682,-0.479481zm1.558882,2.627951l1.697842,1.21353l-2.066477,0.020264l0.368635,-1.233793zm-9.442734,-0.06844c0,-2.139949 0.991034,-4.051966 2.537234,-5.303876l1.320484,4.208908l-3.672797,2.667203c-0.119702,-0.505179 -0.184921,-1.031225 -0.184921,-1.572235zm0.517391,2.603661l4.438718,-0.043345l1.265061,4.23474c-2.579707,-0.226723 -4.751661,-1.893968 -5.703779,-4.191395zm6.30947,1.698848l-0.550738,-1.755344l1.104832,-0.010803l-0.554093,1.766147zm0.605826,2.49201l1.276468,-4.271174l4.468576,-0.043815c-0.923533,2.35862 -3.122595,4.081288 -5.745044,4.314989zm2.383983,-7.954841l1.298341,-4.138589c1.542846,1.25191 2.531128,3.16178 2.531128,5.298911c0,0.501958 -0.05596,0.991101 -0.159357,1.462395l-3.670113,-2.622717z"/>
  </g>
  <!-- zoom-in -->
  <g fill-rule="nonzero" id="zoom-in">
      <path d="M20.879 19.87 17.47 16.46a8.137 8.137 0 0 0 1.923-5.255C19.393 6.694 15.72 3 11.187 3 6.656 3 3 6.675 3 11.206c0 4.513 3.675 8.207 8.206 8.207 2 0 3.827-.724 5.255-1.924l3.408 3.409c.134.133.324.21.515.21.19 0 .361-.077.514-.21.266-.305.266-.762-.02-1.029zM11.206 4.446a6.76 6.76 0 0 1 6.76 6.76c0 3.712-3.047 6.74-6.76 6.74-3.713 0-6.759-3.028-6.759-6.74a6.76 6.76 0 0 1 6.76-6.76zm-.019 2.666c-.4 0-.723.323-.723.723v2.628H7.836a.723.723 0 1 0 0 1.447h2.628v2.627a.723.723 0 1 0 1.447 0v-2.627h2.627c.4 0 .724-.324.724-.724a.715.715 0 0 0-.705-.704h-2.646V7.836c0-.4-.324-.723-.724-.723z" fill="#1B1F3B" fill-rule="nonzero"/>
  </g>
  <!-- zoom-out -->
  <g fill-rule="nonzero" id="zoom-out">
      <path d="M20.879 19.87 17.47 16.46a8.137 8.137 0 0 0 1.923-5.255C19.393 6.694 15.72 3 11.187 3 6.656 3 3 6.675 3 11.206c0 4.513 3.675 8.207 8.206 8.207 2 0 3.827-.724 5.255-1.924l3.408 3.409c.134.133.324.21.515.21.19 0 .361-.077.514-.21.266-.305.266-.762-.02-1.029zM11.206 4.446a6.76 6.76 0 0 1 6.76 6.76c0 3.712-3.047 6.74-6.76 6.74-3.713 0-6.759-3.028-6.759-6.74a6.76 6.76 0 0 1 6.76-6.76zm-.742 6.017H7.836a.723.723 0 1 0 0 1.447h6.702c.4 0 .724-.324.724-.724a.715.715 0 0 0-.705-.704h-2.646l-1.447-.02z" fill="#1B1F3B" fill-rule="nonzero"/>
  </g>
  <!-- copy -->
    <g id="copy">
        <path d="M18.857 3.023H7.912c-1.165 0-2.113.95-2.113 2.12v.656h-.663c-1.166 0-2.113.95-2.113 2.12v10.939c0 1.169.947 2.12 2.113 2.12H16.08c1.17 0 2.12-.951 2.12-2.12v-.656h.656c1.17 0 2.12-.951 2.12-2.12V5.141c0-1.168-.95-2.12-2.12-2.12zm-1.953 15.835c0 .453-.37.822-.823.822H5.136c-.45 0-.816-.369-.816-.822V7.918c0-.453.366-.822.816-.822H16.08c.454 0 .823.37.823.823v10.939zm2.776-2.777c0 .454-.369.823-.823.823h-.656V7.92c0-1.17-.95-2.12-2.12-2.12H7.096v-.657c0-.453.366-.822.816-.822h10.945c.454 0 .823.369.823.822v10.94z" transform="translate(-1400 -209) translate(1060 56) translate(0 32) translate(16 17) translate(0 84) translate(324 20)"/>
    </g>
  <!-- external-link -->
    <g id="external-link">
        <path d="M19.782 10.98l-4.761-4.762c-.29-.29-.762-.29-1.052 0-.29.29-.29.761 0 1.052l3.49 3.491H4.745c-.41 0-.744.333-.744.744s.333.744.744.744H17.46l-3.491 3.492c-.29.29-.29.761 0 1.052.145.145.335.218.526.218.19 0 .38-.073.526-.218l4.761-4.762c.29-.29.29-.761 0-1.052z" transform="translate(-686 -470) translate(670 326) translate(16 48) translate(0 96) rotate(-39 12 11.505)"/>
    </g>
    <!-- external-link-revert -->
    <g id="external-link-revert">
        <path d="M19.782 10.98l-4.761-4.762c-.29-.29-.762-.29-1.052 0-.29.29-.29.761 0 1.052l3.49 3.491H4.745c-.41 0-.744.333-.744.744s.333.744.744.744H17.46l-3.491 3.492c-.29.29-.29.761 0 1.052.145.145.335.218.526.218.19 0 .38-.073.526-.218l4.761-4.762c.29-.29.29-.761 0-1.052z" transform="translate(-686 -470) translate(670 326) translate(16 48) translate(0 96) rotate(139 12 11.505)"/>
    </g>
  <!-- search -->
    <g id="search">
        <path d="M11.27 4.2c3.907 0 7.088 3.182 7.088 7.087 0 1.409-.418 2.767-1.202 3.93l-.35.484 2.74 2.74.076.082c.184.23.215.547.079.837l-.076.133-.09.115-.09.065c-.125.08-.276.127-.435.127-.167 0-.332-.053-.467-.15l-.105-.09-2.746-2.747-.173.144-.254.183c-.943.648-2.03 1.057-3.172 1.188l-.426.036-.385.01-.238-.004C7.252 18.244 4.2 15.112 4.2 11.287 4.2 7.369 7.362 4.2 11.27 4.2zm.017 1.58c-3.04 0-5.507 2.466-5.507 5.507 0 3.02 2.478 5.491 5.507 5.491 3.029 0 5.507-2.47 5.507-5.491 0-3.04-2.466-5.507-5.507-5.507z" transform="translate(-686 -406) translate(670 326) translate(16 48) translate(0 32)"/>
    </g>
  <!-- customize -->
  <g fill-rule="nonzero" id="customize">
    <path d="M10.662 11.667c-.174.15-.39.264-.648.343a2.708 2.708 0 0 1-.798.118c-.665 0-1.18-.179-1.546-.536-.365-.357-.548-.869-.548-1.533V6.43H6v-.985h1.122V4h1.197v1.446h1.895v.985H8.319v3.578c0 .357.09.631.268.823.178.19.434.286.766.286.366 0 .678-.104.935-.311l.374.86z"/>
    <path d="M2 0h12a2 2 0 0 1 2 2v12a2 2 0 0 1-2 2H2a2 2 0 0 1-2-2V2a2 2 0 0 1 2-2zm0 1a1 1 0 0 0-1 1v12a1 1 0 0 0 1 1h12a1 1 0 0 0 1-1V2a1 1 0 0 0-1-1H2z"/>
  </g>
  <!-- tag -->
  <g fill-rule="nonzero" id="tag">
    <path d="M10.255 7.152l-.3 2.417h1.278a.455.455 0 0 1 0 .91h-1.39l-.22 1.803a.5.5 0 0 1-.496.44.392.392 0 0 1-.389-.44l.22-1.803H6.605l-.22 1.803a.5.5 0 0 1-.496.44.392.392 0 0 1-.39-.44l.221-1.803H4.455a.455.455 0 1 1 0-.91H5.83l.312-2.417h-1.29a.455.455 0 0 1 0-.91h1.402l.22-1.803A.5.5 0 0 1 6.973 4a.392.392 0 0 1 .388.439l-.22 1.804h2.342l.22-1.804A.5.5 0 0 1 10.198 4a.392.392 0 0 1 .39.439l-.221 1.804h1.264a.455.455 0 0 1 0 .91h-1.376zm-.885 0H7.028L6.716 9.57h2.355l.299-2.417z"/>
    <path d="M2 0h12a2 2 0 0 1 2 2v12a2 2 0 0 1-2 2H2a2 2 0 0 1-2-2V2a2 2 0 0 1 2-2zm0 1a1 1 0 0 0-1 1v12a1 1 0 0 0 1 1h12a1 1 0 0 0 1-1V2a1 1 0 0 0-1-1H2z"/>
  </g>
  <!-- settings -->
    <g id="settings" fill="#fff">
        <path d="M17.25 7.875H7.753C7.427 6.795 6.435 6 5.25 6s-2.177.794-2.503 1.875H.75c-.414 0-.75.336-.75.75s.336.75.75.75h1.997c.326 1.08 1.318 1.875 2.503 1.875s2.177-.794 2.503-1.875h9.497c.415 0 .75-.336.75-.75s-.335-.75-.75-.75zM12.75 12c1.185 0 2.178.794 2.503 1.875h1.997c.415 0 .75.336.75.75s-.335.75-.75.75h-1.997c-.326 1.08-1.318 1.875-2.503 1.875s-2.178-.794-2.503-1.875H.75c-.414 0-.75-.336-.75-.75s.336-.75.75-.75h9.497C10.573 12.795 11.565 12 12.75 12zm0 1.5c-.62 0-1.125.505-1.125 1.125s.505 1.125 1.125 1.125 1.125-.505 1.125-1.125S13.37 13.5 12.75 13.5zm-7.5-6c.62 0 1.125.505 1.125 1.125S5.87 9.75 5.25 9.75s-1.125-.505-1.125-1.125S4.63 7.5 5.25 7.5zm7.5-7.5c1.185 0 2.177.794 2.503 1.875h1.997c.415 0 .75.336.75.75s-.335.75-.75.75h-1.997c-.326 1.08-1.318 1.875-2.503 1.875s-2.177-.794-2.503-1.875H.75c-.414 0-.75-.336-.75-.75s.336-.75.75-.75h9.497C10.573.795 11.565 0 12.75 0zm0 1.5c-.62 0-1.125.505-1.125 1.125S12.13 3.75 12.75 3.75s1.125-.505 1.125-1.125S13.37 1.5 12.75 1.5z" transform="translate(-1333 -13) translate(1333 13) translate(3 3)"/>
    </g>
  <!-- logout -->
    <g fill-rule="nonzero" id="logout">
        <path d="M12.747 19.054c0 .347.283.634.65.68l.102.006 6.49.007c.923 0 1.68-.646 1.753-1.469l.005-.13v-12.8c0-.84-.71-1.529-1.612-1.595l-.144-.006H13.5c-.417 0-.754.307-.754.686 0 .347.284.634.651.68l.102.006h6.49c.12 0 .22.075.245.176l.007.052v12.8c0 .108-.083.2-.194.223l-.057.006-6.49-.007c-.416 0-.753.306-.754.685zM2.253 11.747c0 .411.333.744.744.744h10.716l-3.492 3.492a.744.744 0 1 0 1.052 1.052l4.762-4.762a.744.744 0 0 0 0-1.052L11.274 6.46a.742.742 0 0 0-1.053 0 .744.744 0 0 0 0 1.052l3.492 3.491H2.997a.744.744 0 0 0-.744.744z" fill="#1B1F3B" fill-rule="nonzero"/>
    </g>
  <!-- alarm -->
  <g fill-rule="evenodd" id="alarm">
    <path fill-rule="nonzero" d="M2 0h12a2 2 0 0 1 2 2v12a2 2 0 0 1-2 2H2a2 2 0 0 1-2-2V2a2 2 0 0 1 2-2zm0 1a1 1 0 0 0-1 1v12a1 1 0 0 0 1 1h12a1 1 0 0 0 1-1V2a1 1 0 0 0-1-1H2z"/>
    <path fill-rule="nonzero" d="M8 11.507c-1.933 0-3.5-1.556-3.5-3.476S6.067 4.556 8 4.556s3.5 1.556 3.5 3.475c0 1.92-1.567 3.476-3.5 3.476zm0-7.944c-2.485 0-4.5 2-4.5 4.468S5.515 12.5 8 12.5s4.5-2 4.5-4.469c0-2.468-2.015-4.468-4.5-4.468zm-.5 2.36v2.605l2.067 1.231c.17.102.392.048.495-.121a.352.352 0 0 0-.12-.488L8.25 8.155V5.924a.375.375 0 0 0-.75 0zM4.918 2.818L3.383 4.093a.493.493 0 0 0-.06.698c.178.21.493.238.705.061l1.53-1.274a.494.494 0 0 0 .062-.698.5.5 0 0 0-.702-.063zm7.7 1.28L11.082 2.82a.503.503 0 0 0-.705.06.494.494 0 0 0 .06.7l1.534 1.278c.212.177.527.15.706-.06a.494.494 0 0 0-.06-.7z"/>
  </g>
  <!-- archive -->
  <g fill-rule="evenodd" id="archive">
    <path fill-rule="nonzero" d="M2 0h12a2 2 0 0 1 2 2v12a2 2 0 0 1-2 2H2a2 2 0 0 1-2-2V2a2 2 0 0 1 2-2zm0 1a1 1 0 0 0-1 1v12a1 1 0 0 0 1 1h12a1 1 0 0 0 1-1V2a1 1 0 0 0-1-1H2z"/>
    <path fill-rule="nonzero" d="M11.59 6.682H4.41v4.673h7.18V6.682zm1 0v5.173a.5.5 0 0 1-.5.5H3.91a.5.5 0 0 1-.5-.5V6.682H3a.5.5 0 0 1-.5-.5V4a.5.5 0 0 1 .5-.5h10a.5.5 0 0 1 .5.5v2.182a.5.5 0 0 1-.5.5h-.41zM3.5 4.5v1.182h9V4.5h-9zm3.59 3.927a.5.5 0 0 1 0-1h1.82a.5.5 0 1 1 0 1H7.09z"/>
  </g>
  <!-- edit -->
  <g fill-rule="evenodd" id="edit">
    <path fill-rule="nonzero" d="M2 0h12a2 2 0 0 1 2 2v12a2 2 0 0 1-2 2H2a2 2 0 0 1-2-2V2a2 2 0 0 1 2-2zm0 1a1 1 0 0 0-1 1v12a1 1 0 0 0 1 1h12a1 1 0 0 0 1-1V2a1 1 0 0 0-1-1H2z"/>
    <path fill-rule="nonzero" d="M8.036 3.179a.5.5 0 1 1 0 1H4.702a.452.452 0 0 0-.452.452v6.667c0 .25.203.452.452.452h6.667c.25 0 .452-.203.452-.452V7.964a.5.5 0 0 1 1 0v3.334c0 .802-.65 1.452-1.452 1.452H4.702c-.802 0-1.452-.65-1.452-1.452V4.63c0-.802.65-1.452 1.452-1.452h3.334zm5.353-.568c.59.59.59 1.546 0 2.135L8.865 9.27a.5.5 0 0 1-.232.132l-1.905.476a.5.5 0 0 1-.606-.606l.476-1.905a.5.5 0 0 1 .132-.232l4.524-4.524a1.51 1.51 0 0 1 2.135 0zm-.707 1.428a.51.51 0 0 0-.721-.721L7.535 7.744l-.24.962.961-.24 4.426-4.427z"/>
  </g>
  <!-- edit-block-active -->
  <g fill="none" fill-rule="evenodd" id='edit-block-active'>
        <g fill="#000" fill-rule="nonzero">
            <g>
                <g>
                    <g>
                        <path d="M12.643 4.286c.355 0 .643.288.643.643 0 .355-.288.643-.643.643H4.929c-.356 0-.643.287-.643.642v12.857c0 .355.287.643.643.643h11.57c.356 0 .644-.288.644-.643v-6.428c0-.355.287-.643.642-.643.356 0 .643.288.643.643v6.428c0 1.065-.863 1.929-1.928 1.929H4.929C3.863 21 3 20.136 3 19.07V6.214c0-1.065.863-1.928 1.929-1.928zM18.539 3c.653 0 1.279.26 1.74.721.961.961.961 2.52 0 3.48l-8.467 8.468c-.071.07-.157.124-.252.155L7.703 17.11c-.065.022-.134.033-.203.033s-.137-.011-.203-.033c-.337-.112-.519-.476-.406-.813l1.285-3.857c.032-.095.085-.18.155-.252L16.8 3.721c.46-.463 1.087-.723 1.74-.72zm.831 1.635c-.458-.46-1.203-.46-1.662-.002l-8.36 8.357-.832 2.494 2.497-.834 8.357-8.357c.221-.22.345-.52.344-.831 0-.31-.124-.608-.344-.827z" transform="translate(-412 -455) translate(32 152) translate(24 288) translate(356 16)"/>
                    </g>
                </g>
            </g>
        </g>
    </g>
  <!-- edit-block-disabled -->
  <g fill="none" fill-rule="evenodd" id='edit-block-disabled'>
        <g fill="#d3d3d3" fill-rule="nonzero">
            <g>
                <g>
                    <g>
                        <path d="M12.643 4.286c.355 0 .643.288.643.643 0 .355-.288.643-.643.643H4.929c-.356 0-.643.287-.643.642v12.857c0 .355.287.643.643.643h11.57c.356 0 .644-.288.644-.643v-6.428c0-.355.287-.643.642-.643.356 0 .643.288.643.643v6.428c0 1.065-.863 1.929-1.928 1.929H4.929C3.863 21 3 20.136 3 19.07V6.214c0-1.065.863-1.928 1.929-1.928zM18.539 3c.653 0 1.279.26 1.74.721.961.961.961 2.52 0 3.48l-8.467 8.468c-.071.07-.157.124-.252.155L7.703 17.11c-.065.022-.134.033-.203.033s-.137-.011-.203-.033c-.337-.112-.519-.476-.406-.813l1.285-3.857c.032-.095.085-.18.155-.252L16.8 3.721c.46-.463 1.087-.723 1.74-.72zm.831 1.635c-.458-.46-1.203-.46-1.662-.002l-8.36 8.357-.832 2.494 2.497-.834 8.357-8.357c.221-.22.345-.52.344-.831 0-.31-.124-.608-.344-.827z" transform="translate(-412 -455) translate(32 152) translate(24 288) translate(356 16)"/>
                    </g>
                </g>
            </g>
        </g>
    </g>
  <!-- reset -->
  <g fill="#a2a8c1" fill-rule="evenodd" id="reset">
    <path fill-rule="nonzero" d="M2 0h12a2 2 0 0 1 2 2v12a2 2 0 0 1-2 2H2a2 2 0 0 1-2-2V2a2 2 0 0 1 2-2zm0 1a1 1 0 0 0-1 1v12a1 1 0 0 0 1 1h12a1 1 0 0 0 1-1V2a1 1 0 0 0-1-1H2z"/>
    <path d="M8 8.707l-3.536 3.536a.5.5 0 1 1-.707-.707L7.293 8 3.757 4.464a.5.5 0 0 1 .707-.707L8 7.293l3.536-3.536a.5.5 0 0 1 .707.707L8.707 8l3.536 3.536a.5.5 0 1 1-.707.707L8 8.707z"/>
  </g>
<!--  &lt;!&ndash; cases &ndash;&gt;-->
<!--    <g id="cases">-->
<!--        <path d="M19.5 2C20.88 2 22 3.12 22 4.5v15c0 1.38-1.12 2.5-2.5 2.5h-15C3.12 22 2 20.88 2 19.5v-15C2 3.12 3.12 2 4.5 2h15zm-7.877 4.65H7.758l-.163.006-.159.016C6.28 6.832 5.4 7.824 5.4 9.008v6.715l.006.163.016.159c.16 1.156 1.152 2.036 2.336 2.036h8.484l.163-.006.159-.016c1.156-.16 2.036-1.153 2.036-2.336v-5.06l-.006-.163-.016-.16c-.16-1.154-1.152-2.033-2.336-2.033h-2.961l-.113-.006-.107-.018c-.421-.097-.737-.481-.737-.932l-.006-.096c-.047-.342-.339-.605-.695-.605zm-.592 1.4l.014.05.063.165c.366.866 1.218 1.444 2.173 1.444h2.961l.112.006.108.018c.421.097.737.481.737.932v5.055l-.007.113-.018.107c-.097.421-.48.737-.932.737H7.758l-.112-.006-.108-.018c-.421-.097-.737-.481-.737-.933V9.008l.007-.112.018-.108c.097-.421.48-.737.932-.737l3.273-.001zM4.5 3.25c-.69 0-1.25.56-1.25 1.25v15c0 .69.56 1.25 1.25 1.25h15c.69 0 1.25-.56 1.25-1.25v-15c0-.69-.56-1.25-1.25-1.25h-15z" transform="translate(-16 -56) translate(0 50) translate(16 6)"/>-->
<!--    </g>-->
  <!-- account -->
  <g fill-rule="nonzero" id="account">
    <path stroke="#1B1F3B" stroke-width=".2" d="M3.353 13h9.296a.346.346 0 0 0 .353-.344c0-1.797-1.503-3.266-3.359-3.266H6.36C4.51 9.39 3 10.851 3 12.656c0 .192.156.344.353.344zm3.006-2.923h3.284c1.347 0 2.456.974 2.628 2.236h-8.54c.172-1.254 1.28-2.236 2.628-2.236zm1.626-1.878c-1.479 0-2.677-1.174-2.677-2.603C5.308 4.166 6.506 3 7.985 3c1.478 0 2.677 1.158 2.677 2.596 0 1.437-1.2 2.603-2.677 2.603zm0-4.52c-1.084 0-1.971.862-1.971 1.917 0 1.054.887 1.916 1.97 1.916 1.085 0 1.971-.862 1.971-1.916 0-1.055-.886-1.917-1.97-1.917z"/>
    <path d="M2 0h12a2 2 0 0 1 2 2v12a2 2 0 0 1-2 2H2a2 2 0 0 1-2-2V2a2 2 0 0 1 2-2zm0 1a1 1 0 0 0-1 1v12a1 1 0 0 0 1 1h12a1 1 0 0 0 1-1V2a1 1 0 0 0-1-1H2z"/>
  </g>
  <!-- first -->
  <g id="first">
    <path d="M2 0h12a2 2 0 012 2v12a2 2 0 01-2 2H2a2 2 0 01-2-2V2a2 2 0 012-2zm0 1a1 1 0 00-1 1v12a1 1 0 001 1h12a1 1 0 001-1V2a1 1 0 00-1-1H2z"/>
    <path d="M5.377 8L7.9 10.191a.431.431 0 010 .67.605.605 0 01-.77 0L4.22 8.335a.431.431 0 010-.67L7.13 5.14a.605.605 0 01.771 0 .431.431 0 010 .67z"/>
    <path d="M9.377 8l2.523 2.191a.431.431 0 010 .67.605.605 0 01-.77 0L8.22 8.335a.431.431 0 010-.67l2.91-2.525a.605.605 0 01.771 0 .431.431 0 010 .67z"/>
  </g>
  <!-- last -->
  <g id="last">
    <path d="M2 0h12a2 2 0 012 2v12a2 2 0 01-2 2H2a2 2 0 01-2-2V2a2 2 0 012-2zm0 1a1 1 0 00-1 1v12a1 1 0 001 1h12a1 1 0 001-1V2a1 1 0 00-1-1H2z"/>
    <path d="M10.743 8L8.22 10.191a.431.431 0 000 .67.605.605 0 00.771 0l2.91-2.526a.431.431 0 000-.67L8.991 5.14a.605.605 0 00-.772 0 .431.431 0 000 .67z"/>
    <path d="M6.743 8L4.22 10.191a.431.431 0 000 .67.605.605 0 00.771 0l2.91-2.526a.431.431 0 000-.67L4.991 5.14a.605.605 0 00-.772 0 .431.431 0 000 .67z"/>
  </g>
  <!-- next -->
  <g id="next">
    <path d="M2 0h12a2 2 0 012 2v12a2 2 0 01-2 2H2a2 2 0 01-2-2V2a2 2 0 012-2zm0 1a1 1 0 00-1 1v12a1 1 0 001 1h12a1 1 0 001-1V2a1 1 0 00-1-1H2z"/>
    <path d="M8.72 8l-2.524 2.191a.431.431 0 000 .67.605.605 0 00.771 0l2.91-2.526a.431.431 0 000-.67L6.967 5.14a.605.605 0 00-.772 0 .431.431 0 000 .67z" fill="#1b1f3b"/>
  </g>
  <!-- prev -->
  <g id="prev">
    <path d="M2 0h12a2 2 0 012 2v12a2 2 0 01-2 2H2a2 2 0 01-2-2V2a2 2 0 012-2zm0 1a1 1 0 00-1 1v12a1 1 0 001 1h12a1 1 0 001-1V2a1 1 0 00-1-1H2z"/>
    <path d="M7.353 8.001L9.876 5.81a.431.431 0 000-.67.605.605 0 00-.77 0l-2.91 2.526a.431.431 0 000 .67l2.91 2.525a.605.605 0 00.771 0 .431.431 0 000-.67z" fill="#1b1f3b"/>
  </g>
  <!-- clear (14x14)-->
  <g id="clear">
    <path fill-rule="nonzero" d="M7.885 7l3.933-3.932a.625.625 0 1 0-.885-.885L7.001 6.116 3.068 2.183a.625.625 0 1 0-.885.885L6.116 7l-3.933 3.933a.625.625 0 1 0 .885.884L7 7.884l3.932 3.933a.624.624 0 0 0 .885 0 .625.625 0 0 0 0-.884L7.885 7z"/>
  </g>
    <!-- clear-large (24x24)-->
    <g id="clear-large" fill="#fff">
        <path d="M13.061 12l4.72-4.719c.292-.293.292-.768 0-1.061-.294-.293-.769-.293-1.062 0L12 10.939l-4.719-4.72c-.293-.292-.768-.292-1.061 0-.293.294-.293.77 0 1.062L10.939 12l-4.72 4.719c-.292.293-.292.768 0 1.06.147.147.34.22.531.22.192 0 .384-.073.531-.22l4.72-4.718 4.718 4.719c.147.146.339.22.53.22.192 0 .385-.074.531-.22.293-.293.293-.769 0-1.062L13.061 12z" transform="translate(-921 -16) translate(191 12) translate(730 4)"/>
    </g>
    <!-- clear-large-dark (24x24)-->
    <g id="clear-large-dark" fill="#6e6e6e">
        <path d="M13.061 12l4.72-4.719c.292-.293.292-.768 0-1.061-.294-.293-.769-.293-1.062 0L12 10.939l-4.719-4.72c-.293-.292-.768-.292-1.061 0-.293.294-.293.77 0 1.062L10.939 12l-4.72 4.719c-.292.293-.292.768 0 1.06.147.147.34.22.531.22.192 0 .384-.073.531-.22l4.72-4.718 4.718 4.719c.147.146.339.22.53.22.192 0 .385-.074.531-.22.293-.293.293-.769 0-1.062L13.061 12z" transform="translate(-921 -16) translate(191 12) translate(730 4)"/>
    </g>

  <!-- profile (24x24) -->
  <g id="profile">
    <path style="stroke:none;fill-rule:nonzero;fill:#fff;fill-opacity:1;" d="M 12 3 C 9.789062 3 8 4.789062 8 7 C 8 9.210938 9.789062 11 12 11 C 14.210938 11 16 9.210938 16 7 C 16 4.789062 14.210938 3 12 3 Z M 12 14 C 8.996094 14 3 15.507812 3 18.5 L 3 21 L 21 21 L 21 18.5 C 21 15.507812 15.003906 14 12 14 Z M 12 14 "/>
  </g>
  <!-- arrow (14x14)-->
  <g id="arrow">
    <path fill-rule="nonzero" d="M12.877 4.116a.446.446 0 0 0-.6 0L7.007 9.053 1.724 4.116a.446.446 0 0 0-.6 0 .378.378 0 0 0 0 .56l5.572 5.208a.448.448 0 0 0 .6 0l5.57-5.208a.371.371 0 0 0 .011-.56z"/>
  </g>
<!-- arrow-down (14x14)-->
    <g id="arrow-down">
        <path d="M16.936 8.75l-4.93 4.618-4.941-4.617c-.358-.335-.925-.335-1.282 0-.377.352-.377.938 0 1.29l5.571 5.208c.176.165.401.251.641.251.233 0 .467-.088.642-.25l5.571-5.208c.385-.339.393-.934.01-1.291-.357-.335-.924-.335-1.282 0z" transform="translate(-56 -60) translate(0 56) translate(16 4) translate(40)"/>
    </g>

    <!-- png (24x24) -->
    <g id="png">
        <path d="M18.577 3c1.278 0 2.328.995 2.417 2.25l.006.173v13.154c0 1.278-.995 2.328-2.25 2.417l-.173.006H5.423c-1.278 0-2.328-.995-2.417-2.25L3 18.576V5.423c0-1.278.995-2.328 2.25-2.417L5.424 3h13.154zm-2.32 7.472c-.031-.002-.061.004-.09.019l-.04.03-5.099 5.106c-.222.223-.563.263-.828.11l-.095-.067-2.146-1.781c-.048-.04-.112-.05-.168-.03l-.052.031-3.367 2.864v1.823c0 .538.407.983.929 1.044l.122.007h13.154c.538 0 .983-.407 1.044-.929l.007-.122v-4.045l-3.247-3.997c-.024-.029-.05-.046-.08-.055l-.044-.008zm2.32-6.1H5.423c-.538 0-.983.407-1.044.929l-.007.122v9.53l2.478-2.108c.531-.452 1.29-.489 1.858-.107l.128.095 1.662 1.381 4.658-4.662c.27-.27.63-.43 1.008-.45h.163c.381.019.741.18 1.01.447l.109.12 2.181 2.688.001-6.934c0-.538-.407-.983-.929-1.044l-.122-.007zm-9.85.802c1.476 0 2.676 1.2 2.676 2.675 0 1.475-1.2 2.675-2.675 2.675-1.475 0-2.675-1.2-2.675-2.675 0-1.475 1.2-2.675 2.675-2.675zm0 1.04c-.9 0-1.634.734-1.634 1.635s.733 1.634 1.635 1.634c.9 0 1.634-.733 1.634-1.634 0-.901-.733-1.634-1.634-1.634z" transform="translate(-174 -153) translate(0 89) translate(158 48) translate(16 16)"/>
    </g>

    <!-- svg (24x24) -->
    <g id="svg" fill-rule="evenodd">
        <path d="M19.5 2C20.88 2 22 3.12 22 4.5v15c0 1.38-1.12 2.5-2.5 2.5h-15C3.12 22 2 20.88 2 19.5v-15C2 3.12 3.12 2 4.5 2h15zm-10 14h-4c-.276 0-.5.224-.5.5s.224.5.5.5h4c.276 0 .5-.224.5-.5s-.224-.5-.5-.5zM7 10c-.414 0-.765.063-1.052.188-.287.125-.501.294-.644.508-.142.213-.213.452-.213.715 0 .302.078.544.236.725.157.181.346.313.566.395.22.082.503.164.848.246.224.051.402.099.534.142.132.043.24.1.324.172.084.07.126.16.126.268 0 .147-.071.264-.214.353-.142.088-.362.133-.66.133-.267 0-.535-.044-.802-.13-.201-.065-.381-.145-.54-.241l-.153-.102-.356.79c.203.155.471.281.806.378.334.098.68.146 1.039.146.414 0 .766-.063 1.055-.188.289-.125.506-.294.65-.508.145-.213.217-.45.217-.708 0-.303-.079-.542-.236-.719-.158-.177-.347-.306-.567-.388-.22-.082-.502-.164-.848-.246-.332-.074-.579-.148-.74-.224-.162-.075-.243-.19-.243-.346 0-.155.07-.28.21-.375.14-.095.357-.143.65-.143.36 0 .718.088 1.077.262l.18.094.323-.796c-.207-.13-.449-.228-.725-.297C7.572 10.034 7.289 10 7 10zm9.804 0c-.475 0-.902.1-1.282.301-.38.2-.676.479-.89.835-.214.356-.32.758-.32 1.207 0 .449.106.851.32 1.207.214.356.508.634.884.835.375.2.798.301 1.268.301.328 0 .654-.05.977-.149.26-.08.493-.186.703-.32l.152-.107v-1.838h-.958v1.327c-.242.13-.514.194-.816.194-.284 0-.538-.062-.76-.185-.222-.123-.396-.294-.521-.514-.125-.22-.188-.47-.188-.751 0-.285.063-.537.188-.757.125-.22.3-.39.524-.512.225-.12.481-.18.77-.18.4 0 .75.13 1.047.39l.125.12.673-.62c-.22-.255-.492-.45-.816-.583-.323-.134-.683-.201-1.08-.201zm-6.566.078H9.106l1.954 4.53h1.036l1.961-4.53h-1.042l-1.398 3.236-1.379-3.236zM4.5 3.25c-.69 0-1.25.56-1.25 1.25v15c0 .69.56 1.25 1.25 1.25h15c.69 0 1.25-.56 1.25-1.25v-15c0-.69-.56-1.25-1.25-1.25h-15z" transform="translate(-180 -183) translate(0 87) translate(164 48) translate(16 16) translate(0 32)"/>
    </g>

    <!-- JSON (24x24) -->
    <g id="json">
        <path d="M18.75 2.9c1.244 0 2.262.966 2.345 2.19l.005.16v13.5c0 1.244-.966 2.262-2.19 2.345l-.16.005H5.25c-1.244 0-2.262-.966-2.345-2.19l-.005-.16V5.25c0-1.244.966-2.262 2.19-2.345l.16-.005h13.5zm0 1.325H5.25c-.528 0-.963.4-1.019.913l-.006.112v13.5c0 .528.4.963.913 1.019l.112.006h13.5c.528 0 .963-.4 1.019-.913l.006-.112V5.25c0-.566-.459-1.025-1.025-1.025zM9.485 6.43c.28 0 .513.205.556.473l.008.091v.17c0 .218-.177.394-.394.394-.483 0-.73.222-.765.694l-.005.123v2.574c0 .338-.054.598-.167.781-.052.084-.118.157-.198.218l-.084.058-.045.024.045.023c.053.033.1.069.143.109l.061.063.078.105c.094.152.148.358.163.619l.004.162v2.574c0 .514.21.775.663.812l.118.005.08.01c.15.035.266.157.295.306l.008.077v.17c0 .281-.205.514-.473.558l-.091.007h-.053c-.612 0-1.08-.155-1.399-.47-.283-.28-.439-.672-.47-1.176l-.006-.193v-2.703c0-.301-.106-.453-.343-.483l-.096-.006-.093-.01c-.206-.042-.364-.207-.4-.41l-.008-.09v-.118c0-.282.229-.511.511-.511.262 0 .397-.118.424-.382l.005-.106V8.27c0-.597.158-1.055.476-1.37.284-.279.685-.433 1.2-.463l.252-.006zm4.536 0h.053c.612 0 1.081.155 1.403.469.287.28.446.673.477 1.176l.006.194v2.703c0 .302.103.452.334.483l.093.005.09.01c.203.041.357.203.392.402l.008.087v.141c0 .276-.224.5-.5.5-.254 0-.386.117-.412.382l-.005.106v2.703c0 .597-.16 1.055-.483 1.37-.286.279-.689.432-1.205.463l-.251.006c-.28 0-.513-.205-.557-.473l-.007-.091v-.182c0-.211.17-.383.382-.383.498 0 .752-.221.788-.693l.005-.123V13.11c0-.346.052-.607.161-.786.05-.083.115-.154.194-.215l.083-.058.043-.022-.043-.023c-.052-.031-.1-.067-.141-.106l-.06-.062-.076-.104c-.09-.149-.142-.356-.157-.62l-.004-.166V8.375c0-.514-.216-.775-.683-.813l-.122-.004-.076-.01c-.147-.034-.258-.152-.287-.297l-.007-.075v-.182c0-.28.204-.513.472-.557l.092-.007z" transform="translate(-174 -217) translate(0 89) translate(158 48) translate(16 16) translate(0 64)"/>
    </g>

    <!-- undo (24x24) -->
    <g id="undo">
        <path d="M18.487 13.985c0 3.317-2.698 6.015-6.015 6.015h-2.129c-.353 0-.639-.286-.639-.639v-.213c0-.353.286-.638.64-.638h2.128c2.495 0 4.525-2.03 4.525-4.525 0-2.494-2.03-4.524-4.525-4.524H8.544l2.705 2.705c.291.29.291.763 0 1.054-.281.282-.772.281-1.053 0L6.218 9.243C6.078 9.102 6 8.915 6 8.716c0-.2.078-.387.218-.527l3.978-3.978c.281-.281.772-.281 1.054 0 .29.29.29.763 0 1.054L8.544 7.97h3.928c3.317 0 6.015 2.699 6.015 6.015z" transform="translate(-217 -60) translate(0 56) translate(217 4)"/>
    </g>

    <!-- redo (24x24) -->
    <g id="redo">
        <path d="M18.487 13.985c0 3.317-2.698 6.015-6.015 6.015h-2.129c-.353 0-.639-.286-.639-.639v-.213c0-.353.286-.638.64-.638h2.128c2.495 0 4.525-2.03 4.525-4.525 0-2.494-2.03-4.524-4.525-4.524H8.544l2.705 2.705c.291.29.291.763 0 1.054-.281.282-.772.281-1.053 0L6.218 9.243C6.078 9.102 6 8.915 6 8.716c0-.2.078-.387.218-.527l3.978-3.978c.281-.281.772-.281 1.054 0 .29.29.29.763 0 1.054L8.544 7.97h3.928c3.317 0 6.015 2.699 6.015 6.015z" transform="translate(-310 -60) translate(0 56) translate(310 4) matrix(-1 0 0 1 24.487 0)"/>
    </g>
    <!-- support (24x24) -->
    <g id="support" fill="#1b1f3b">
        <path d="M12 2c5.523 0 10 4.477 10 10s-4.477 10-10 10S2 17.523 2 12 6.477 2 12 2zm.006 13.727c-.571 0-1.041.479-1.041 1.059 0 .575.465 1.058 1.041 1.058.58 0 1.059-.487 1.059-1.058 0-.576-.483-1.059-1.059-1.059zM12.22 6.2C10.4 6.2 9.2 7.192 9.2 8.19c0 .446.354.731.78.731.18 0 .282-.055.414-.226l.225-.32c.347-.477.774-.712 1.55-.712.983 0 1.671.477 1.671 1.311 0 .561-.274.979-.835 1.453l-.216.174-.428.335-.044.036c-.675.582-1.026 1.227-1.026 2.333 0 .733.137.895.7.895.578 0 .763-.17.763-.47 0-1.063.135-1.493.851-2.087l.141-.114c1.059-.823 1.753-1.708 1.753-2.833 0-1.444-1.328-2.496-3.28-2.496zM12 3.4c-4.75 0-8.6 3.85-8.6 8.6s3.85 8.6 8.6 8.6 8.6-3.85 8.6-8.6-3.85-8.6-8.6-8.6z" transform="translate(-618 -864) translate(0 852) translate(618 12)"/>
    </g>
    <!-- find (24x24) -->
    <g id="find" fill="#596387f">
        <path d="M20.784 19.78l-3.39-3.39c1.193-1.42 1.913-3.238 1.913-5.227C19.307 6.674 15.652 3 11.144 3 6.636 3 3 6.655 3 11.163c0 4.489 3.655 8.163 8.163 8.163 1.989 0 3.807-.72 5.227-1.913l3.39 3.39c.133.133.323.209.512.209.19 0 .36-.076.511-.209.266-.303.266-.757-.019-1.022zM4.44 11.164c0-3.712 3.012-6.724 6.724-6.724s6.724 3.012 6.724 6.724c0 3.693-3.03 6.705-6.724 6.705-3.693 0-6.724-3.012-6.724-6.705z" transform="translate(-199 -864) translate(0 852) translate(16 8) translate(180) translate(3 4)"/>
    </g>
    <!-- sidebar-open (24x24) -->
    <g id="sidebar-open">
        <path d="M7.9 16a.9.9 0 0 0-.113 1.793l.113.007h11a.9.9 0 0 0 .113-1.793L18.9 16h-11zm-3-5a.9.9 0 0 0-.113 1.793l.113.007h14a.9.9 0 0 0 .113-1.793L18.9 11h-14zm0-5a.9.9 0 0 0-.113 1.793L4.9 7.8h14a.9.9 0 0 0 .113-1.793L18.9 6h-14z" fill="#1B1F3B" fill-rule="nonzero"/>
    </g>

    <!-- find-dis (24x24) -->
    <g id="find-dis" fill="#596387">
        <path d="M20.784 19.78l-3.39-3.39c1.193-1.42 1.913-3.238 1.913-5.227C19.307 6.674 15.652 3 11.144 3 6.636 3 3 6.655 3 11.163c0 4.489 3.655 8.163 8.163 8.163 1.989 0 3.807-.72 5.227-1.913l3.39 3.39c.133.133.323.209.512.209.19 0 .36-.076.511-.209.266-.303.266-.757-.019-1.022zM4.44 11.164c0-3.712 3.012-6.724 6.724-6.724s6.724 3.012 6.724 6.724c0 3.693-3.03 6.705-6.724 6.705-3.693 0-6.724-3.012-6.724-6.705z" transform="translate(-199 -864) translate(0 852) translate(16 8) translate(180) translate(3 4)"/>
    </g>
    <!-- reset-all (24x24) -->
    <g id="reset-all">
        <path d="M15.9 10.267c-.008 3.132-1.852 5.967-4.712 7.242-2.859 1.276-6.2.754-8.535-1.332C.318 14.09-.574 10.828.373 7.844c.08-.287.308-.508.597-.579.29-.07.594.02.797.238.203.218.273.528.182.812-.611 1.946-.257 4.068.953 5.71 1.769 2.38 4.958 3.203 7.658 1.977 2.7-1.226 4.178-4.169 3.551-7.066-.627-2.898-3.19-4.966-6.155-4.966H5.87l.912.912c.213.206.298.512.222.799-.075.287-.3.51-.586.586-.287.075-.592-.01-.8-.222L3.304 3.729c-.038-.039-.073-.08-.103-.126-.014-.021-.024-.044-.036-.066-.014-.024-.027-.05-.04-.075-.01-.029-.019-.058-.026-.087-.007-.022-.015-.044-.02-.067-.01-.053-.016-.107-.016-.161 0-.055.005-.109.016-.162.005-.023.013-.044.02-.067.012-.057.035-.112.066-.162.012-.022.022-.045.036-.066.03-.045.065-.087.103-.126L5.62.248c.207-.212.512-.296.798-.22.287.075.51.299.586.585.076.287-.009.592-.22.799l-.913.912h2.086c4.385.005 7.938 3.558 7.943 7.943z" transform="translate(-476 -864) translate(0 852) translate(476 12) translate(4 3)"/>
    </g>
    <!-- report -->
    <g id="report" fill="#c41551" filter="url(#eai4p7d2qa)" transform="translate(-1076 -392) translate(1060 56) translate(0 32) translate(16 17) translate(0 270)">
        <g>
            <path fill="#091540" fill-rule="nonzero" d="M19.5 2C20.88 2 22 3.12 22 4.5v15c0 1.38-1.12 2.5-2.5 2.5h-15C3.12 22 2 20.88 2 19.5v-15C2 3.12 3.12 2 4.5 2h15zM12 14.5c-.69 0-1.25.56-1.25 1.25S11.31 17 12 17s1.25-.56 1.25-1.25-.56-1.25-1.25-1.25zM13.25 7h-2.5l.522 6.25h1.476L13.25 7zM4.5 3.25c-.69 0-1.25.56-1.25 1.25v15c0 .69.56 1.25 1.25 1.25h15c.69 0 1.25-.56 1.25-1.25v-15c0-.69-.56-1.25-1.25-1.25h-15z" transform="translate(0 17)"/>
        </g>
    </g>
    <!-- incomes -->
    <g id="incomes">
        <path d="M19.782 10.98l-4.761-4.762c-.29-.29-.762-.29-1.052 0-.29.29-.29.761 0 1.052l3.49 3.491H4.745c-.41 0-.744.333-.744.744s.333.744.744.744H17.46l-3.491 3.492c-.29.29-.29.761 0 1.052.145.145.335.218.526.218.19 0 .38-.073.526-.218l4.761-4.762c.29-.29.29-.761 0-1.052z" transform="translate(-686 -502) translate(670 326) translate(16 48) translate(0 128) rotate(90 12 11.505)"/>
    </g>
    <!-- outcomes -->
    <g id="outcomes">
        <path d="M19.782 10.98l-4.761-4.762c-.29-.29-.762-.29-1.052 0-.29.29-.29.761 0 1.052l3.49 3.491H4.745c-.41 0-.744.333-.744.744s.333.744.744.744H17.46l-3.491 3.492c-.29.29-.29.761 0 1.052.145.145.335.218.526.218.19 0 .38-.073.526-.218l4.761-4.762c.29-.29.29-.761 0-1.052z" transform="translate(-686 -534) translate(670 326) translate(16 48) translate(0 160) scale(1 -1) rotate(90 23.505 0)"/>
    </g>
    <!-- exchange -->
    <g id="exchange">
        <path d="M16.364 12.952c.401 0 .727.326.727.727 0 .402-.326.728-.727.728H6.483l1.667 1.667c.276.286.272.74-.008 1.02-.281.28-.735.284-1.02.009l-2.909-2.91c-.208-.207-.27-.52-.158-.792.113-.272.378-.449.672-.449zm-.506-6.739c.28-.28.734-.284 1.02-.009l2.909 2.91c.208.207.27.52.157.792-.112.271-.377.449-.671.449H7.636c-.401 0-.727-.326-.727-.728 0-.401.326-.727.727-.727h9.88L15.85 7.233c-.275-.286-.271-.74.01-1.02z" transform="translate(-686 -438) translate(670 326) translate(16 48) translate(0 64)"/>
    </g>
    <!-- warn-report -->
    <g id="warn-report" fill="#FF2A00">
        <path d="M12 2c5.523 0 10 4.477 10 10s-4.477 10-10 10S2 17.523 2 12 6.477 2 12 2zm.055 12.55c-.583 0-1.055.472-1.055 1.055 0 .582.472 1.054 1.055 1.054.582 0 1.054-.472 1.054-1.054 0-.583-.472-1.055-1.054-1.055zm0-7.55c-.432 0-.782.35-.782.781v5.031l.008.106c.051.382.378.675.774.675.431 0 .78-.35.78-.78V7.78l-.006-.106C12.777 7.294 12.45 7 12.055 7zM12 3.4c-4.75 0-8.6 3.85-8.6 8.6s3.85 8.6 8.6 8.6 8.6-3.85 8.6-8.6-3.85-8.6-8.6-8.6z" transform="translate(-1076 -392) translate(1060 56) translate(16 93) translate(0 226) translate(0 17)"/>
    </g>
    <!-- admin -->
    <g id="admin">
        <path d="M19.412 12.987h-1.997c-.272 0-.535.037-.785.106-.494-.976-1.503-1.647-2.665-1.647h-3.53c-1.162 0-2.17.67-2.665 1.647-.25-.07-.513-.106-.785-.106H4.988C3.341 12.987 2 14.334 2 15.99v3.208C2 20.192 2.804 21 3.793 21h16.814c.989 0 1.793-.808 1.793-1.802V15.99c0-1.656-1.34-3.003-2.988-3.003zM7.447 14.449v5.35H3.793c-.33 0-.598-.27-.598-.6v-3.21c0-.993.805-1.801 1.793-1.801h1.997c.162 0 .32.022.47.063-.005.066-.008.132-.008.198zm8.31 5.35H8.643v-5.35c0-.993.804-1.802 1.793-1.802h3.53c.989 0 1.793.809 1.793 1.802v5.35zm3.655-5.611c.988 0 1.793.808 1.793 1.802v3.208c0 .331-.268.6-.598.6h-3.654V14.45c0-.066-.003-.132-.007-.198.15-.04.307-.063.469-.063h1.997zM5.987 7.315c1.464 0 2.655 1.197 2.655 2.668 0 1.472-1.191 2.669-2.655 2.669-1.464 0-2.656-1.197-2.656-2.669 0-1.471 1.192-2.668 2.656-2.668zm12.426 0c1.464 0 2.656 1.197 2.656 2.668 0 1.472-1.192 2.669-2.656 2.669-1.464 0-2.655-1.197-2.655-2.669 0-1.471 1.191-2.668 2.655-2.668zm-12.426 1.2c-.805 0-1.46.66-1.46 1.468 0 .81.655 1.468 1.46 1.468.805 0 1.46-.659 1.46-1.468 0-.809-.655-1.467-1.46-1.467zm12.426 0c-.805 0-1.46.66-1.46 1.468 0 .81.655 1.468 1.46 1.468.805 0 1.46-.659 1.46-1.468 0-.809-.655-1.467-1.46-1.467zM12.2 4c1.956 0 3.548 1.6 3.548 3.565 0 1.966-1.592 3.566-3.548 3.566s-3.548-1.6-3.548-3.566C8.652 5.6 10.244 4 12.2 4zm0 1.201c-1.297 0-2.352 1.06-2.352 2.364 0 1.304 1.055 2.364 2.352 2.364s2.352-1.06 2.352-2.364c0-1.303-1.055-2.364-2.352-2.364z" transform="translate(-1253 -90) translate(1237 42) translate(16 16) translate(0 32)"/>
    </g>
    <!-- admin-light -->
    <g id="admin-light" fill="#fff">
        <path d="M19.412 12.987h-1.997c-.272 0-.535.037-.785.106-.494-.976-1.503-1.647-2.665-1.647h-3.53c-1.162 0-2.17.67-2.665 1.647-.25-.07-.513-.106-.785-.106H4.988C3.341 12.987 2 14.334 2 15.99v3.208C2 20.192 2.804 21 3.793 21h16.814c.989 0 1.793-.808 1.793-1.802V15.99c0-1.656-1.34-3.003-2.988-3.003zM7.447 14.449v5.35H3.793c-.33 0-.598-.27-.598-.6v-3.21c0-.993.805-1.801 1.793-1.801h1.997c.162 0 .32.022.47.063-.005.066-.008.132-.008.198zm8.31 5.35H8.643v-5.35c0-.993.804-1.802 1.793-1.802h3.53c.989 0 1.793.809 1.793 1.802v5.35zm3.655-5.611c.988 0 1.793.808 1.793 1.802v3.208c0 .331-.268.6-.598.6h-3.654V14.45c0-.066-.003-.132-.007-.198.15-.04.307-.063.469-.063h1.997zM5.987 7.315c1.464 0 2.655 1.197 2.655 2.668 0 1.472-1.191 2.669-2.655 2.669-1.464 0-2.656-1.197-2.656-2.669 0-1.471 1.192-2.668 2.656-2.668zm12.426 0c1.464 0 2.656 1.197 2.656 2.668 0 1.472-1.192 2.669-2.656 2.669-1.464 0-2.655-1.197-2.655-2.669 0-1.471 1.191-2.668 2.655-2.668zm-12.426 1.2c-.805 0-1.46.66-1.46 1.468 0 .81.655 1.468 1.46 1.468.805 0 1.46-.659 1.46-1.468 0-.809-.655-1.467-1.46-1.467zm12.426 0c-.805 0-1.46.66-1.46 1.468 0 .81.655 1.468 1.46 1.468.805 0 1.46-.659 1.46-1.468 0-.809-.655-1.467-1.46-1.467zM12.2 4c1.956 0 3.548 1.6 3.548 3.565 0 1.966-1.592 3.566-3.548 3.566s-3.548-1.6-3.548-3.566C8.652 5.6 10.244 4 12.2 4zm0 1.201c-1.297 0-2.352 1.06-2.352 2.364 0 1.304 1.055 2.364 2.352 2.364s2.352-1.06 2.352-2.364c0-1.303-1.055-2.364-2.352-2.364z" transform="translate(-1253 -90) translate(1237 42) translate(16 16) translate(0 32)"/>
    </g>
    <!-- vision -->
    <g id="vision">
        <path d="M12 4c.736 0 1.333.597 1.333 1.333 0 .097-.01.19-.03.281l5.146 3.737c.07-.012.144-.018.218-.018.736 0 1.333.597 1.333 1.334 0 .606-.405 1.119-.96 1.28l-1.939 5.968c.147.214.232.473.232.752 0 .736-.597 1.333-1.333 1.333-.57 0-1.057-.358-1.247-.861H9.247C9.057 19.642 8.57 20 8 20c-.736 0-1.333-.597-1.333-1.333 0-.28.085-.538.232-.752L4.96 11.947c-.555-.161-.96-.674-.96-1.28 0-.737.597-1.334 1.333-1.334.074 0 .147.006.218.018l5.145-3.737c-.02-.09-.03-.184-.03-.28C10.667 4.596 11.265 4 12 4zm.4 2.606c-.126.04-.26.06-.4.06s-.274-.02-.4-.06L6.597 10.24c.045.134.07.277.07.427 0 .376-.157.717-.408.96l1.856 5.711c.36.03.68.206.902.467h5.966c.244-.289.61-.472 1.017-.472l-.115.005 1.856-5.712c-.223-.214-.37-.506-.402-.83l-.006-.13c0-.149.025-.292.07-.426z" transform="translate(-1253 -90) translate(1237 42) translate(16 16) translate(0 32)"/>
    </g>
    <!-- vision-light -->
    <g id="vision-light" fill="#fff">
        <path d="M12 4c.736 0 1.333.597 1.333 1.333 0 .097-.01.19-.03.281l5.146 3.737c.07-.012.144-.018.218-.018.736 0 1.333.597 1.333 1.334 0 .606-.405 1.119-.96 1.28l-1.939 5.968c.147.214.232.473.232.752 0 .736-.597 1.333-1.333 1.333-.57 0-1.057-.358-1.247-.861H9.247C9.057 19.642 8.57 20 8 20c-.736 0-1.333-.597-1.333-1.333 0-.28.085-.538.232-.752L4.96 11.947c-.555-.161-.96-.674-.96-1.28 0-.737.597-1.334 1.333-1.334.074 0 .147.006.218.018l5.145-3.737c-.02-.09-.03-.184-.03-.28C10.667 4.596 11.265 4 12 4zm.4 2.606c-.126.04-.26.06-.4.06s-.274-.02-.4-.06L6.597 10.24c.045.134.07.277.07.427 0 .376-.157.717-.408.96l1.856 5.711c.36.03.68.206.902.467h5.966c.244-.289.61-.472 1.017-.472l-.115.005 1.856-5.712c-.223-.214-.37-.506-.402-.83l-.006-.13c0-.149.025-.292.07-.426z" transform="translate(-1253 -90) translate(1237 42) translate(16 16) translate(0 32)"/>
    </g>
    <!-- users -->
    <g id="users">
        <path d="M11.876 3.9c2.567 0 4.645 2.048 4.645 4.58 0 2.425-1.902 4.412-4.31 4.581h2.06c3.105 0 5.629 2.496 5.629 5.565 0 .662-.504 1.203-1.156 1.267l-.133.007H5.19A1.278 1.278 0 0 1 3.9 18.626c0-2.997 2.406-5.447 5.408-5.562l.22-.004 2.021.002c-2.407-.167-4.317-2.16-4.317-4.581 0-2.527 2.082-4.581 4.644-4.581zm2.395 10.7H9.53c-2.115 0-3.869 1.608-4.055 3.664l-.007.095h12.865l-.006-.095c-.18-1.989-1.828-3.56-3.851-3.658l-.204-.005zM11.876 5.24c-1.814 0-3.29 1.455-3.29 3.242 0 1.79 1.479 3.253 3.29 3.253 1.817 0 3.29-1.457 3.29-3.253 0-1.794-1.47-3.242-3.29-3.242z" fill="#1B1F3B" fill-rule="nonzero"/>
    </g>
    <!-- users-list -->
    <g id="users-list" fill="#091540" fill-rule="nonzero" stroke="#091540" stroke-width=".4">
        <path d="M12 5a3.352 3.352 0 0 0-3.348 3.348A3.351 3.351 0 0 0 12 11.696a3.352 3.352 0 0 0 3.348-3.348A3.352 3.352 0 0 0 12 5zm0 5.74a2.395 2.395 0 0 1-2.391-2.392A2.395 2.395 0 0 1 12 5.957a2.395 2.395 0 0 1 2.391 2.39A2.395 2.395 0 0 1 12 10.74zM18.696 8.826a2.395 2.395 0 0 0-2.392 2.391 2.395 2.395 0 0 0 2.392 2.392 2.395 2.395 0 0 0 2.39-2.392 2.395 2.395 0 0 0-2.39-2.39zm0 3.826a1.437 1.437 0 0 1-1.435-1.435c0-.79.644-1.434 1.435-1.434.79 0 1.434.643 1.434 1.434 0 .791-.643 1.435-1.434 1.435zM5.372 8.826a2.394 2.394 0 0 0-2.391 2.391 2.395 2.395 0 0 0 2.391 2.392 2.395 2.395 0 0 0 2.392-2.392 2.394 2.394 0 0 0-2.392-2.39zm0 3.826a1.437 1.437 0 0 1-1.435-1.435c0-.79.644-1.434 1.435-1.434s1.435.643 1.435 1.434c0 .791-.644 1.435-1.435 1.435zM12 12.652a6.225 6.225 0 0 0-6.217 6.218.478.478 0 0 0 .956 0c0-2.902 2.36-5.261 5.261-5.261 2.901 0 5.26 2.36 5.26 5.26a.478.478 0 0 0 .957 0A6.225 6.225 0 0 0 12 12.653z"/>
        <path d="M18.696 14.565c-.788 0-1.559.215-2.23.622a.479.479 0 0 0 .496.818 3.352 3.352 0 0 1 5.081 2.865.478.478 0 0 0 .957 0 4.31 4.31 0 0 0-4.304-4.305zM7.533 15.186A4.307 4.307 0 0 0 1 18.87a.478.478 0 0 0 .957 0 3.351 3.351 0 0 1 5.08-2.866.479.479 0 0 0 .496-.818z"/>
    </g>
    <!-- tagging -->
    <g id="tagging">
        <path fill="#1b1f3b" d="M17.318 4.132c-.397-.12-.81.103-.968.506l-.034.105-.904 3.467-.097.075h-4.807l-.096-.126.763-2.925c.123-.472-.133-.96-.567-1.09-.397-.12-.81.102-.968.506l-.034.104-.901 3.456-.097.075H6.013c-.449 0-.815.393-.815.882 0 .45.312.82.713.875l.102.007h2.083l.097.125-.952 3.647-.097.075H4.915c-.449 0-.815.393-.815.882 0 .45.312.82.713.875l.102.007h1.717l.097.125-.783 3c-.123.471.133.959.563 1.088.42.109.826-.135.974-.512l.032-.097.92-3.53.097-.074h4.807l.097.125-.78 2.988c-.123.471.133.959.563 1.088.445.116.825-.118.974-.508l.032-.1.917-3.518.097-.075h2.748c.449 0 .815-.393.815-.882 0-.451-.312-.821-.713-.875l-.102-.007h-2.236l-.096-.126.951-3.647.097-.074h2.382c.449 0 .815-.394.815-.882 0-.452-.312-.821-.713-.876l-.102-.006h-1.87l-.097-.126.767-2.937c.123-.472-.133-.96-.567-1.09zm-2.515 5.917l.096.125-.951 3.647-.097.075H9.045l-.097-.126.951-3.647.097-.074h4.807z" transform="translate(-399 -15) translate(399 16)"/>
    </g>
    <!-- tagging-dark -->
    <g id="tagging-dark">
        <path fill="#091540" d="M17.318 4.132c-.397-.12-.81.103-.968.506l-.034.105-.904 3.467-.097.075h-4.807l-.096-.126.763-2.925c.123-.472-.133-.96-.567-1.09-.397-.12-.81.102-.968.506l-.034.104-.901 3.456-.097.075H6.013c-.449 0-.815.393-.815.882 0 .45.312.82.713.875l.102.007h2.083l.097.125-.952 3.647-.097.075H4.915c-.449 0-.815.393-.815.882 0 .45.312.82.713.875l.102.007h1.717l.097.125-.783 3c-.123.471.133.959.563 1.088.42.109.826-.135.974-.512l.032-.097.92-3.53.097-.074h4.807l.097.125-.78 2.988c-.123.471.133.959.563 1.088.445.116.825-.118.974-.508l.032-.1.917-3.518.097-.075h2.748c.449 0 .815-.393.815-.882 0-.451-.312-.821-.713-.875l-.102-.007h-2.236l-.096-.126.951-3.647.097-.074h2.382c.449 0 .815-.394.815-.882 0-.452-.312-.821-.713-.876l-.102-.006h-1.87l-.097-.126.767-2.937c.123-.472-.133-.96-.567-1.09zm-2.515 5.917l.096.125-.951 3.647-.097.075H9.045l-.097-.126.951-3.647.097-.074h4.807z" transform="translate(-399 -15) translate(399 16)"/>
    </g>
    <!-- delete -->
    <g id="delete" fill="#FF2A00">
        <path d="M14.538 2H9.923c-.848 0-1.538.69-1.538 1.538v1.539H3.769c-.425 0-.769.344-.769.77 0 .425.344.768.77.768h1.538v13.077C5.308 20.965 6.343 22 7.615 22h9.231c1.272 0 2.308-1.035 2.308-2.308V6.615h1.538c.426 0 .77-.343.77-.769 0-.425-.344-.77-.77-.77h-4.615V3.539c0-.848-.69-1.538-1.539-1.538zm3.077 17.692c0 .425-.344.77-.769.77h-9.23c-.425 0-.77-.345-.77-.77V6.615h10.77v13.077zm-6.923-10c.426 0 .77.344.77.77v6.153c0 .426-.344.77-.77.77-.425 0-.769-.344-.769-.77v-6.153c0-.426.344-.77.77-.77zm3.077 0c.426 0 .77.344.77.77v6.153c0 .426-.344.77-.77.77-.425 0-.769-.344-.769-.77v-6.153c0-.426.344-.77.77-.77zm.77-6.154v1.539H9.922V3.538h4.615z" transform="translate(-1173 -204) translate(32 88) translate(0 64) translate(0 40) translate(1141 12)"/>
    </g>
    <!-- reload -->
    <g id="reload">
        <path d="M15.9 10.267c-.008 3.132-1.852 5.967-4.712 7.242-2.859 1.276-6.2.754-8.535-1.332C.318 14.09-.574 10.828.373 7.844c.08-.287.308-.508.597-.579.29-.07.594.02.797.238.203.218.273.528.182.812-.611 1.946-.257 4.068.953 5.71 1.769 2.38 4.958 3.203 7.658 1.977 2.7-1.226 4.178-4.169 3.551-7.066-.627-2.898-3.19-4.966-6.155-4.966H5.87l.912.912c.213.206.298.512.222.799-.075.287-.3.51-.586.586-.287.075-.592-.01-.8-.222L3.304 3.729c-.038-.039-.073-.08-.103-.126-.014-.021-.024-.044-.036-.066-.014-.024-.027-.05-.04-.075-.01-.029-.019-.058-.026-.087-.007-.022-.015-.044-.02-.067-.01-.053-.016-.107-.016-.161 0-.055.005-.109.016-.162.005-.023.013-.044.02-.067.012-.057.035-.112.066-.162.012-.022.022-.045.036-.066.03-.045.065-.087.103-.126L5.62.248c.207-.212.512-.296.798-.22.287.075.51.299.586.585.076.287-.009.592-.22.799l-.913.912h2.086c4.385.005 7.938 3.558 7.943 7.943z" transform="translate(-996 -204) translate(32 88) translate(0 64) translate(0 40) translate(964 12) translate(4 3)"/>
    </g>
    <!-- next -->
    <g id="next">
        <path d="M16.936 8.75l-4.93 4.618-4.941-4.617c-.358-.335-.925-.335-1.282 0-.377.352-.377.938 0 1.29l5.571 5.208c.176.165.401.251.641.251.233 0 .467-.088.642-.25l5.571-5.208c.385-.339.393-.934.01-1.291-.357-.335-.924-.335-1.282 0z" transform="translate(-836 -785) translate(32 88) translate(0 64) translate(548 633) matrix(-1 0 0 1 280 0) rotate(90 12 12)"/>
    </g>
    <!-- prev -->
    <g id="prev">
        <path d="M16.936 8.75l-4.93 4.618-4.941-4.617c-.358-.335-.925-.335-1.282 0-.377.352-.377.938 0 1.29l5.571 5.208c.176.165.401.251.641.251.233 0 .467-.088.642-.25l5.571-5.208c.385-.339.393-.934.01-1.291-.357-.335-.924-.335-1.282 0z" transform="translate(-836 -785) translate(32 88) translate(0 64) translate(548 633) matrix(-1 0 0 1 280 0) rotate(-90 12 12)"/>
    </g>
    <!-- warn-report -->
    <g id="warn-report" fill="#ff2a00">
        <path d="M12 2c5.523 0 10 4.477 10 10s-4.477 10-10 10S2 17.523 2 12 6.477 2 12 2zm.055 12.55c-.583 0-1.055.472-1.055 1.055 0 .582.472 1.054 1.055 1.054.582 0 1.054-.472 1.054-1.054 0-.583-.472-1.055-1.054-1.055zm0-7.55c-.432 0-.782.35-.782.781v5.031l.008.106c.051.382.378.675.774.675.431 0 .78-.35.78-.78V7.78l-.006-.106C12.777 7.294 12.45 7 12.055 7zM12 3.4c-4.75 0-8.6 3.85-8.6 8.6s3.85 8.6 8.6 8.6 8.6-3.85 8.6-8.6-3.85-8.6-8.6-8.6z" transform="translate(-120 -322) translate(120 206) translate(0 116)"/>
    </g>
    <!-- def-report -->
    <g id="def-report">
        <path d="M12 2c5.523 0 10 4.477 10 10s-4.477 10-10 10S2 17.523 2 12 6.477 2 12 2zm.055 12.55c-.583 0-1.055.472-1.055 1.055 0 .582.472 1.054 1.055 1.054.582 0 1.054-.472 1.054-1.054 0-.583-.472-1.055-1.054-1.055zm0-7.55c-.432 0-.782.35-.782.781v5.031l.008.106c.051.382.378.675.774.675.431 0 .78-.35.78-.78V7.78l-.006-.106C12.777 7.294 12.45 7 12.055 7zM12 3.4c-4.75 0-8.6 3.85-8.6 8.6s3.85 8.6 8.6 8.6 8.6-3.85 8.6-8.6-3.85-8.6-8.6-8.6z" transform="translate(-120 -322) translate(120 206) translate(0 116)"/>
    </g>
    <!-- succeed-report -->
    <g id="succeed-report" fill="#091540">
        <path d="M12 2c5.523 0 10 4.477 10 10s-4.477 10-10 10S2 17.523 2 12 6.477 2 12 2zm4.735 5.977c-.342-.234-.809-.146-1.043.195L11.47 14.02l-2.75-2.612-.093-.062c-.319-.179-.729-.102-.96.196-.253.328-.192.799.135 1.052l2.96 2.775.113.078c.537.33 1.247.208 1.641-.302L16.93 9.02l.056-.096c.16-.329.06-.734-.251-.947zM12 3.4c-4.75 0-8.6 3.85-8.6 8.6s3.85 8.6 8.6 8.6 8.6-3.85 8.6-8.6-3.85-8.6-8.6-8.6z" transform="translate(-120 -354) translate(120 206) translate(0 116) translate(0 32)"/>
    </g>
    <!-- rewrite -->
    <g id="rewrite" fill="none" fill-rule="evenodd">
        <g fill="#091540" fill-rule="nonzero">
          <path d="M7.038 9.68c-.41 0-.748.306-.797.7l-.007.1.007.312.019.31c.109 1.32.564 2.574 1.317 3.653l.194.266.08.099-.009.133-4.6 4.57-.077.086c-.243.317-.216.768.068 1.054.122.122.276.2.44.227l.124.01.104-.006.109-.02c.1-.028.196-.074.28-.138l.079-.07 4.613-4.582.132-.008.098.078c1.298.981 2.869 1.512 4.505 1.512 1.307 0 2.582-.339 3.707-.981l.278-.167.298-.198.29-.213c.281-.218.548-.456.795-.711l.241-.26.09-.108.177.064v1.167l.007.107c.05.399.39.702.797.702.41 0 .747-.306.797-.702l.006-.101v-2.422L21.195 14c-.068-.915-.797-1.64-1.7-1.714l-.153-.006h-2.42l-.106.007c-.363.045-.647.33-.696.683l-.007.107.006.101.019.103c.08.318.347.554.67.598l.108.007h1.393l.08.16-.076.1-.168.204c-1.111 1.278-2.715 2.008-4.428 2.008-3.24 0-5.876-2.636-5.876-5.876 0-.444-.36-.803-.803-.803zM13.718 3c-1.308 0-2.583.339-3.707.981l-.278.167-.298.198-.29.213c-.282.218-.548.456-.796.711l-.241.26-.092.109-.176-.065V4.407L7.835 4.3c-.05-.4-.39-.702-.796-.702-.41 0-.748.306-.797.702l-.007.1v2.423l.005.142c.068.914.797 1.64 1.701 1.713l.152.006h2.42l.107-.006c.363-.045.646-.331.695-.683l.007-.108-.005-.1-.02-.104c-.08-.318-.347-.553-.669-.597l-.109-.008H9.124l-.08-.16.077-.1.169-.203c1.11-1.278 2.714-2.009 4.427-2.009 3.24 0 5.877 2.637 5.877 5.877 0 .443.36.803.803.803.443 0 .803-.36.803-.803C21.2 6.357 17.843 3 13.717 3z" transform="translate(-560 -414) translate(520 210) translate(40 164) translate(0 40)"/>
      </g>
    </g>
    <!-- calendar -->
    <g id="calendar" fill="#fff">
        <path d="M15.429 2.8c.345 0 .642.228.74.56l.023.103.008.108v1.514h1.514c1.263 0 2.306.943 2.465 2.162l.016.161.005.163V19c0 1.318-1.026 2.396-2.322 2.48l-.164.006H6.286c-1.318 0-2.397-1.026-2.48-2.323L3.8 19V7.571c0-1.317 1.026-2.396 2.322-2.48l.164-.005 1.513-.001.001-1.514c0-.306.18-.575.453-.7l.107-.04.103-.023.108-.008c.345 0 .642.228.74.56l.024.103.008.109-.002 1.513h5.316V3.571c0-.306.18-.575.453-.7l.107-.04.103-.023.109-.008zm3.228 8.284H5.341L5.343 19c0 .484.364.882.833.937l.11.006h11.428c.484 0 .882-.364.937-.833l.006-.11v-7.916zM16.2 6.627V7c0 .345-.228.642-.56.74l-.103.023-.108.008c-.345 0-.642-.227-.74-.56l-.024-.102L14.657 7v-.372H9.341L9.343 7c0 .345-.228.642-.56.74l-.103.023-.109.008c-.345 0-.642-.227-.74-.56l-.023-.102L7.8 7l-.001-.373-1.513.002c-.484 0-.882.364-.937.833l-.006.11-.002 1.97h13.316v-1.97c0-.484-.364-.883-.833-.937l-.11-.006-1.514-.002z" transform="translate(-1397 -485) translate(1060 56) translate(16 361) translate(0 32) translate(0 32) translate(318) translate(3 4)"/>
    </g>
    <!-- statistic -->
    <g id="statistic">
        <path fill="#1b1f3b" d="M16.436 7c.415 0 .749.334.749.749v8.752c.455-.022.812.334.812.75 0 .414-.335.749-.75.749H.75C.334 18 0 17.665 0 17.25c0-.37.268-.675.62-.738v-5.035c0-.415.335-.75.75-.75s.75.335.75.75V16.5h3.525V9.986c0-.415.334-.75.75-.75.414 0 .749.335.749.75V16.5h3.522V8.87c0-.415.334-.75.749-.75s.75.335.75.75v7.628h3.521V7.75c0-.415.335-.75.75-.75zM12.356.47c.153-.386.59-.57.976-.415l3.14 1.267c.188.073.335.22.412.404.077.183.08.393.003.576L15.613 5.42c-.107.313-.536.588-.977.412-.386-.15-.57-.595-.411-.977l1.08-1.812C9.498 5.832 1.501 7.819 1.428 7.837c-.448.11-.82-.217-.9-.562-.096-.404.158-.808.562-.9.073-.018 7.678-1.847 13.867-4.414l-2.188-.514c-.385-.155-.57-.592-.415-.977z" transform="translate(-529.000000, -16.000000) translate(529.000000, 16.000000) translate(3.000000, 3.000000)"/>
    </g>
    <!-- scoring -->
    <g id="scoring">
        <path fill="#1b1f3b" d="M12 3.85c5.597 0 10.15 4.553 10.15 10.15 0 1.784-.47 3.539-1.36 5.076-.204.351-.653.471-1.005.268l-1.63-.941c-.353-.203-.473-.653-.27-1.005.163-.283.488-.42.804-.348l.104.032.097.046.964.557.092-.195c.252-.574.441-1.175.564-1.79l.065-.37.05-.374.019-.221h-1.113c-.335 0-.618-.223-.707-.53l-.022-.105-.007-.1c0-.326.213-.607.523-.703l.106-.025.107-.008h1.113l-.019-.22c-.069-.63-.207-1.245-.408-1.837l-.13-.353-.143-.346-.091-.193-.963.557c-.288.166-.641.115-.872-.101l-.072-.078-.061-.09c-.163-.283-.119-.633.1-.87l.08-.075.09-.061.96-.556-.123-.176c-.373-.505-.799-.97-1.269-1.383l-.288-.242-.297-.23-.18-.126-.555.962c-.166.288-.498.42-.806.348l-.101-.032-.098-.047c-.282-.163-.42-.488-.348-.804l.032-.105.046-.096.556-.964-.194-.09c-.57-.252-1.168-.442-1.782-.565l-.37-.065-.374-.05-.229-.021v1.114c0 .335-.223.618-.53.707l-.105.022-.1.007c-.326 0-.607-.213-.703-.523l-.025-.106-.008-.107V5.355l-.22.02c-.63.07-1.245.207-1.837.409l-.353.128-.346.144-.193.09.557.964c.166.288.115.641-.101.872l-.078.072-.09.06c-.283.164-.633.12-.87-.1l-.075-.08-.06-.088-.557-.962-.176.124c-.505.373-.97.799-1.383 1.269l-.242.287-.23.298-.126.179.962.556c.288.166.42.498.348.806l-.031.101-.048.098c-.163.283-.488.42-.804.348l-.104-.032-.097-.046-.964-.557-.09.195c-.252.57-.442 1.168-.565 1.782l-.066.37-.05.374-.02.228h1.114c.335 0 .618.224.707.531l.022.105.007.1c0 .326-.213.607-.523.703l-.106.025-.107.008-1.114-.001.02.218c.069.625.205 1.24.406 1.834l.128.353.143.346.093.199.965-.557c.288-.166.641-.115.872.101l.072.078.061.09c.203.353.083.803-.27 1.006l-1.63.942c-.352.202-.801.082-1.005-.27C2.32 17.54 1.85 15.785 1.85 14 1.85 8.403 6.403 3.85 12 3.85zM8.324 9.342l.111.067.091.077 2.687 2.686.068-.029c.113-.044.23-.077.351-.1l.182-.025.186-.009c1.1 0 1.99.891 1.99 1.99 0 .188-.026.372-.077.551l-.06.178-.026.058.576.576c.232.233.277.582.134.859l-.063.1-.07.082c-.225.225-.563.276-.847.138l-.104-.061-.09-.077-.577-.577-.067.03c-.114.044-.231.078-.351.1l-.183.026-.185.008c-1.1 0-1.99-.891-1.99-1.99 0-.188.026-.372.077-.55l.06-.179.025-.058-2.686-2.687c-.233-.232-.277-.58-.134-.858l.062-.1.072-.082c.224-.225.562-.276.838-.144zM12 13.181c-.452 0-.819.367-.819.819 0 .451.367.818.819.818.452 0 .819-.367.819-.818 0-.452-.367-.82-.819-.82z" transform="translate(-664.000000, -16.000000) translate(664.000000, 16.000000) translate(0.000000, -0.000000)"/>
    </g>
    <!-- add-sorting -->
    <g id="add-sorting" fill="#6E6E6E" >
        <path d="m15.169 14.179-3.522 3.298-3.53-3.298a.675.675 0 0 0-.915 0 .627.627 0 0 0 0 .922l3.98 3.72a.676.676 0 0 0 .916 0l3.98-3.72a.62.62 0 0 0 .007-.922.675.675 0 0 0-.916 0zM15.169 9.821l-3.522-3.298-3.53 3.298a.675.675 0 0 1-.915 0 .627.627 0 0 1 0-.922l3.98-3.72a.676.676 0 0 1 .916 0l3.98 3.72a.62.62 0 0 1 .007.922.675.675 0 0 1-.916 0z"/>
    </g>
    <!-- tag-close -->
    <g id="tag-close" fill="#091540" fill-rule="nonzero">
        <path d="M8.708 8l3.145-3.146c.196-.195.196-.512 0-.707-.195-.196-.512-.196-.707 0L8 7.292 4.854 4.147c-.195-.196-.512-.196-.707 0-.196.195-.196.512 0 .707L7.293 8l-3.146 3.146c-.196.195-.196.512 0 .707.097.098.225.147.353.147.128 0 .256-.05.354-.147L8 8.707l3.146 3.146c.098.098.226.147.354.147.128 0 .256-.05.353-.147.196-.195.196-.512 0-.707L8.708 8z" transform="translate(-260.000000, -688.000000) translate(32.000000, 152.000000) translate(24.000000, 288.000000) translate(24.000000, 224.000000) translate(140.000000, 20.000000) translate(40.000000, 4.000000)"/>
    </g>
    <!-- upload-label -->
    <g id="upload-label" fill="#091540" fill-rule="nonzero">
        <path d="M16.212 0c1.101 0 2.006.857 2.083 1.939l.005.148V8.92c0 .143-.046.282-.13.397l-.069.082-8.291 8.291c-.35.35-.803.56-1.296.602l-.187.008-.178-.008c-.429-.037-.829-.203-1.156-.478l-.135-.124L.61 11.442C-.163 10.67-.2 9.435.494 8.616L.61 8.49 8.902.198c.102-.101.232-.167.373-.19L9.38 0h6.831zm0 1.355l-6.551-.001-8.093 8.094c-.26.26-.283.668-.07.954l.07.082 6.247 6.247c.138.138.321.213.519.213.158 0 .307-.048.43-.138l.088-.075 8.093-8.093v-6.55c0-.37-.276-.678-.633-.727l-.1-.006zm-2.71 1.636c.482 0 .936.188 1.278.53.34.34.529.795.529 1.277 0 .482-.188.937-.53 1.278-.34.34-.795.53-1.277.53-.483 0-.937-.19-1.278-.53-.341-.341-.53-.796-.53-1.278s.189-.937.53-1.278c.341-.34.795-.529 1.278-.529zm0 1.055c-.2 0-.39.078-.532.22-.142.142-.22.331-.22.532 0 .2.078.39.22.532.142.142.331.22.532.22.2 0 .39-.078.532-.22.142-.142.22-.331.22-.532 0-.2-.078-.39-.22-.532-.142-.142-.332-.22-.532-.22z" transform="translate(-560.000000, -296.000000) translate(520.000000, 132.000000) translate(40.000000, 164.000000) translate(0.000000, -0.000000) translate(2.850003, 2.850000)"/>
    </g>
    <!-- upload-types -->
    <g id="upload-types" fill="#091540" fill-rule="nonzero">
        <path d="M19.93 12.005c.177.387.006.843-.38 1.018l-8.462 3.846c-.1.046-.21.07-.319.07-.076 0-.152-.012-.226-.034l-10-3.077c-.406-.126-.633-.556-.509-.962.125-.406.557-.636.962-.509l9.721 2.992 8.195-3.726c.39-.179.844-.004 1.019.382zm-9.213.267L.996 9.28c-.405-.127-.836.103-.962.51-.125.405.103.836.51.961l10 3.077c.073.022.15.034.225.034.11 0 .218-.023.319-.07l8.461-3.846c.387-.176.558-.631.382-1.018-.176-.385-.628-.558-1.019-.381l-8.195 3.725zM.001 6.977c-.016-.323.172-.621.47-.747l5.615-2.367C7.192 3.397 7.718 2.815 7.718.769c0-.236.108-.46.295-.605.186-.146.428-.198.658-.142l9.953 2.452c.343.085.585.393.585.747v.117c0 2.276.002 3.778-2.785 4.952-1.866.787-5.292 2.404-5.326 2.421-.103.05-.216.074-.329.074-.076 0-.152-.012-.226-.034l-10-3.077C.235 7.58.018 7.3.002 6.977zm3.017-.151l7.692 2.367c.856-.402 3.51-1.643 5.115-2.32 1.701-.716 1.835-1.268 1.844-3.049L9.216 1.741c-.149 1.578-.747 2.787-2.531 3.54L3.018 6.825z" transform="translate(-560.000000, -416.000000) translate(520.000000, 132.000000) translate(40.000000, 164.000000) translate(0.000000, 120.000000) translate(2.000000, 4.000000)"/>
    </g>
    <!-- delete-action -->
    <g id="delete-action" fill="#091540" fill-rule="nonzero">
        <path d="M14.538 2H9.923c-.848 0-1.538.69-1.538 1.538v1.539H3.769c-.425 0-.769.344-.769.77 0 .425.344.768.77.768h1.538v13.077C5.308 20.965 6.343 22 7.615 22h9.231c1.272 0 2.308-1.035 2.308-2.308V6.615h1.538c.426 0 .77-.343.77-.769 0-.425-.344-.77-.77-.77h-4.615V3.539c0-.848-.69-1.538-1.539-1.538zm3.077 17.692c0 .425-.344.77-.769.77h-9.23c-.425 0-.77-.345-.77-.77V6.615h10.77v13.077zm-6.923-10c.426 0 .77.344.77.77v6.153c0 .426-.344.77-.77.77-.425 0-.769-.344-.769-.77v-6.153c0-.426.344-.77.77-.77zm3.077 0c.426 0 .77.344.77.77v6.153c0 .426-.344.77-.77.77-.425 0-.769-.344-.769-.77v-6.153c0-.426.344-.77.77-.77zm.77-6.154v1.539H9.922V3.538h4.615z" transform="translate(-580.000000, -604.000000) translate(32.000000, 152.000000) translate(24.000000, 264.000000) translate(0.000000, 168.000000) translate(524.000000, 20.000000)"/>
    </g>
    <!-- reset-action -->
    <g id="reset-action" fill="#091540" fill-rule="nonzero">
        <path d="M14.538 2H9.923a1.54 1.54 0 0 0-1.538 1.538v1.539H3.769a.769.769 0 1 0 0 1.538h1.539v13.077A2.31 2.31 0 0 0 7.615 22h9.231a2.31 2.31 0 0 0 2.308-2.308V6.615h1.538a.769.769 0 1 0 0-1.538h-4.615V3.538A1.54 1.54 0 0 0 14.538 2zm3.077 17.692a.77.77 0 0 1-.769.77h-9.23a.77.77 0 0 1-.77-.77V6.615h10.77v13.077zm-6.923-10c.426 0 .77.344.77.77v6.153a.769.769 0 1 1-1.539 0v-6.153c0-.426.344-.77.77-.77zm3.077 0c.426 0 .77.344.77.77v6.153a.769.769 0 1 1-1.539 0v-6.153c0-.426.344-.77.77-.77zm.77-6.154v1.539H9.922V3.538h4.615z" fill="#3030D6" fill-rule="nonzero"/>
    </g>
    <!-- edit-action -->
    <g id="edit-action" fill="#091540" fill-rule="nonzero">
        <path d="M13.643 4.136c.438 0 .793.355.793.793 0 .358-.24.666-.582.763l-.105.022-.106.008H5.929c-.215 0-.4.137-.466.325l-.02.083-.007.084v12.857c0 .215.138.4.325.466l.084.02.084.007h11.57c.215 0 .4-.138.466-.325l.021-.084.007-.084v-6.428c0-.438.355-.793.792-.793.359 0 .667.24.763.581l.023.106.007.106v6.428c0 1.036-.76 1.903-1.769 2.056l-.153.017-.156.006H5.929c-1.036 0-1.903-.76-2.056-1.77l-.017-.152-.006-.157V6.214c0-1.035.76-1.902 1.769-2.055l.153-.017.157-.006h7.714zm5.895-1.286l.208.008c.617.05 1.199.316 1.64.757.926.926 1.015 2.385.24 3.416l-.117.144-.124.132-8.467 8.468c-.039.038-.081.073-.13.104l-.078.045-.102.043-3.858 1.285c-.08.027-.165.04-.25.04-.085 0-.17-.013-.25-.04-.34-.113-.556-.437-.54-.792l.012-.108.026-.103 1.286-3.857c.017-.052.04-.101.07-.15l.049-.075.072-.085 8.467-8.466c.44-.443 1.023-.71 1.64-.758l.206-.008zm-.418 1.678l-.112.059-.105.072-.09.08-8.323 8.298-.738 2.211 2.155-.704 8.357-8.357c.193-.192.3-.453.3-.725 0-.27-.109-.53-.3-.721-.307-.308-.765-.382-1.144-.213z" transform="translate(-620.000000, -604.000000) translate(32.000000, 152.000000) translate(24.000000, 264.000000) translate(0.000000, 168.000000) translate(524.000000, 20.000000) translate(40.000000, 0.000000)"/>
    </g>
    <!-- merge-action -->
    <g id="merge-action" fill="#091540" fill-rule="nonzero">
        <path d="M17.447 11.145c.392 0 .728.266.826.642l.02.105.007.106v4.043c0 1.132-.84 2.08-1.944 2.237l-.16.017-.155.005h-4.184c-.471 0-.853-.382-.853-.853 0-.393.266-.728.642-.826l.106-.02.105-.007h4.184c.246 0 .458-.163.528-.383l.019-.085.006-.085v-4.043c0-.472.382-.853.853-.853zm-16.594 0c.393 0 .728.266.826.642l.02.105.007.106v4.043c0 .246.163.458.383.528l.085.019.085.006h4.184c.471 0 .853.382.853.853 0 .392-.266.728-.642.826l-.106.02-.105.007H2.259c-1.132 0-2.08-.84-2.237-1.944l-.017-.16L0 16.041v-4.043c0-.472.382-.853.853-.853zm2.988-5.16c.267-.267.672-.322.996-.154l.105.065.105.09 3.091 3.09v.212l-3.09 3.126c-.266.268-.67.326-1.002.154l-.108-.065-.105-.091-.082-.096c-.191-.263-.214-.61-.063-.9l.065-.105.082-.097 1.161-1.176H.853c-.399 0-.733-.273-.827-.643l-.02-.103L0 9.185c0-.392.266-.728.642-.826l.106-.02.105-.007h4.128l-1.14-1.14c-.275-.275-.323-.69-.144-1.015l.067-.104.077-.088zm9.412 0c.333-.333.873-.333 1.206 0 .267.267.323.672.149 1.003l-.066.108-.083.096-1.141 1.14h4.129c.399 0 .733.274.827.643l.02.103.006.107c0 .393-.266.728-.642.826l-.106.02-.105.007h-4.144l1.17 1.185.082.097c.24.339.202.806-.096 1.1-.269.266-.674.32-1.004.144l-.107-.067-.096-.083-3.09-3.126v-.212l3.09-3.09zM16.04 0c1.132 0 2.08.84 2.237 1.944l.017.16.005.155v4.114c0 .47-.382.853-.853.853-.393 0-.728-.267-.826-.643l-.02-.105-.007-.105V2.259c0-.246-.163-.458-.383-.528l-.085-.019-.085-.006h-4.184c-.471 0-.853-.382-.853-.853 0-.392.266-.728.642-.826l.106-.02.105-.007h4.184zM6.443 0c.471 0 .853.382.853.853 0 .393-.266.728-.642.826l-.106.02-.105.007H2.259c-.246 0-.458.163-.528.383l-.019.085-.006.085v4.114c0 .47-.382.853-.853.853-.392 0-.728-.267-.826-.643l-.02-.105L0 6.373V2.259C0 1.127.84.18 1.944.022l.16-.017L2.259 0h4.184z" transform="translate(-541.000000, -437.000000) translate(32.000000, 152.000000) translate(509.000000, 285.000000) translate(0.000000, 0.000000) translate(2.850000, 2.850000)"/>
    </g>
    <!-- refresh -->
    <g id="refresh" fill="#091540">
        <path d="M15.9 10.267c-.008 3.132-1.852 5.967-4.712 7.242-2.859 1.276-6.2.754-8.535-1.332C.318 14.09-.574 10.828.373 7.844c.08-.287.308-.508.597-.579.29-.07.594.02.797.238.203.218.273.528.182.812-.611 1.946-.257 4.068.953 5.71 1.769 2.38 4.958 3.203 7.658 1.977 2.7-1.226 4.178-4.169 3.551-7.066-.627-2.898-3.19-4.966-6.155-4.966H5.87l.912.912c.213.206.298.512.222.799-.075.287-.3.51-.586.586-.287.075-.592-.01-.8-.222L3.304 3.729c-.038-.039-.073-.08-.103-.126-.014-.021-.024-.044-.036-.066-.014-.024-.027-.05-.04-.075-.01-.029-.019-.058-.026-.087-.007-.022-.015-.044-.02-.067-.01-.053-.016-.107-.016-.161 0-.055.005-.109.016-.162.005-.023.013-.044.02-.067.012-.057.035-.112.066-.162.012-.022.022-.045.036-.066.03-.045.065-.087.103-.126L5.62.248c.207-.212.512-.296.798-.22.287.075.51.299.586.585.076.287-.009.592-.22.799l-.913.912h2.086c4.385.005 7.938 3.558 7.943 7.943z" transform="translate(-1368.000000, -482.000000) translate(1060.000000, 56.000000) translate(16.000000, 426.000000) translate(292.000000, 0.000000) translate(4.000000, 3.000000)"/>
    </g>
    <!-- conflicts-arrow -->
    <g id="conflicts-arrow" fill="none" fill-rule="evenodd">
        <path d="M0 0h24v24H0z"/>
        <path d="M18.688 11.341 7.588.271A.93.93 0 0 0 6.273 1.59L16.714 12 6.274 22.411a.93.93 0 1 0 1.313 1.317l11.101-11.07a.93.93 0 0 0 0-1.317z" fill="#D3D3D3" fill-rule="nonzero"/>
    </g>
    <g id="expand">
        <path d="M5.167 13.875a.661.661 0 0 0-.662.661v4.221c-.004.034-.004.039-.005.082a.662.662 0 0 0 .731.655h4.233a.661.661 0 0 0 0-1.322H6.763l3.161-3.16a.661.661 0 0 0-.935-.936l-3.161 3.16v-2.7a.661.661 0 0 0-.661-.661zm13.666 0a.661.661 0 0 0-.66.661v2.7l-3.162-3.16a.661.661 0 0 0-.935.936l3.161 3.16h-2.7a.661.661 0 0 0 0 1.322h4.232a.662.662 0 0 0 .731-.656c-.001-.042-.001-.047-.005-.08v-4.222a.661.661 0 0 0-.662-.661zM18.84 4.5a.387.387 0 0 0-.07.006h-4.233a.661.661 0 0 0 0 1.322h2.701l-3.161 3.16a.661.661 0 0 0 .935.936l3.161-3.16v2.7a.661.661 0 0 0 1.323 0V5.243c.004-.034.004-.039.005-.082a.662.662 0 0 0-.66-.661zm-13.678 0a.662.662 0 0 0-.661.661c.001.043.001.048.005.082v4.22a.661.661 0 0 0 1.323 0v-2.7l3.161 3.162a.661.661 0 0 0 .935-.936l-3.161-3.16h2.7a.661.661 0 0 0 0-1.323H5.232c-.024-.004-.024-.004-.07-.006z" fill="#1B1F3B" fill-rule="nonzero"/><path d="M5.167 13.875a.661.661 0 0 0-.662.661v4.221c-.004.034-.004.039-.005.082a.662.662 0 0 0 .731.655h4.233a.661.661 0 0 0 0-1.322H6.763l3.161-3.16a.661.661 0 0 0-.935-.936l-3.161 3.16v-2.7a.661.661 0 0 0-.661-.661zm13.666 0a.661.661 0 0 0-.66.661v2.7l-3.162-3.16a.661.661 0 0 0-.935.936l3.161 3.16h-2.7a.661.661 0 0 0 0 1.322h4.232a.662.662 0 0 0 .731-.656c-.001-.042-.001-.047-.005-.08v-4.222a.661.661 0 0 0-.662-.661zM18.84 4.5a.387.387 0 0 0-.07.006h-4.233a.661.661 0 0 0 0 1.322h2.701l-3.161 3.16a.661.661 0 0 0 .935.936l3.161-3.16v2.7a.661.661 0 0 0 1.323 0V5.243c.004-.034.004-.039.005-.082a.662.662 0 0 0-.66-.661zm-13.678 0a.662.662 0 0 0-.661.661c.001.043.001.048.005.082v4.22a.661.661 0 0 0 1.323 0v-2.7l3.161 3.162a.661.661 0 0 0 .935-.936l-3.161-3.16h2.7a.661.661 0 0 0 0-1.323H5.232c-.024-.004-.024-.004-.07-.006z" fill="#1B1F3B" fill-rule="nonzero"/>
    </g>
    <g id="collapse">
        <path d="m20.128 14.035.106.007a.708.708 0 0 1 .604.588l.008.102-.005.095-.024.112a.707.707 0 0 1-.575.502l-.104.008h-2.694l3.18 3.18.08.093a.707.707 0 0 1-.47 1.12l-.107.007-.11-.01-.116-.03a.704.704 0 0 1-.19-.103l-.082-.072-3.185-3.186v2.678l-.007.108a.71.71 0 0 1-.706.616.71.71 0 0 1-.695-.612l-.006-.095v-4.418l.007-.094.032-.121.04-.092.036-.064.05-.066a.712.712 0 0 1 .412-.24l.114-.013h4.407zm-9.351 0c.07.016.12.061.156.15.033.082.048.173.043.286l-.01.12v4.535l-.008.108a.71.71 0 0 1-.593.61l-.103.007-.105-.008-.11-.025a.706.706 0 0 1-.489-.572l-.007-.102v-2.695l-3.18 3.18-.092.082a.709.709 0 0 1-1.121-.464l-.007-.093.007-.114.03-.122a.702.702 0 0 1 .103-.198l.076-.086 3.18-3.185H5.874l-.108-.006a.707.707 0 0 1-.006-1.401l.096-.007h4.833l.083.003c.005 0 .005-.002.005-.003zm4.965-9.885.085.005.111.023a.708.708 0 0 1 .503.575l.008.104V7.55l3.179-3.179.093-.08a.708.708 0 0 1 1.116.467l.006.093-.007.113-.028.12a.704.704 0 0 1-.1.195l-.073.084-3.186 3.187h2.676l.108.007a.707.707 0 0 1 .006 1.401l-.096.007h-4.346l-.062.005a.706.706 0 0 1-.706-.706l.004-.075.005-.05-.004-4.265.007-.108a.708.708 0 0 1 .596-.61l.105-.007zm-5.488 0c.358 0 .653.266.7.611l.007.096V9.2l.004.063a.707.707 0 0 1-.602.701l-.093.007-.133-.01-4.268.004-.108-.007a.708.708 0 0 1-.61-.588l-.007-.102.005-.095.023-.112a.707.707 0 0 1 .575-.502l.104-.008h2.696l-3.18-3.18-.08-.092a.708.708 0 0 1 .467-1.116l.093-.007.113.007.119.028c.07.023.136.057.195.1l.085.072L9.548 7.55l-.002-2.676.007-.108a.707.707 0 0 1 .7-.617z" fill="#1B1F3B" fill-rule="nonzero"/>
    </g>
    <g id="visual-tool">
        <path d="M12.15 11.374a3.61 3.61 0 0 1 3.604 3.61 3.61 3.61 0 0 1-3.604 3.609 3.61 3.61 0 0 1-3.604-3.61 3.61 3.61 0 0 1 3.604-3.609zm0 1.707a1.903 1.903 0 0 0 0 3.806 1.903 1.903 0 0 0 0-3.806zm0-4.445c3.894 0 7.4 2.723 9.056 5.959a.853.853 0 0 1-1.385.967l-.073-.09-.06-.099c-1.396-2.72-4.392-5.031-7.538-5.031-3.034 0-6.065 2.161-7.538 5.032a.854.854 0 0 1-1.518-.78c1.75-3.416 5.346-5.958 9.056-5.958zM3.26 6.964a.853.853 0 0 1 1.114-.133l.092.071 1.566 1.413A.853.853 0 0 1 4.98 9.654l-.091-.072-1.566-1.413a.853.853 0 0 1-.134-1.113l.072-.092zm16.574-.062a.853.853 0 0 1 1.224 1.184l-.08.083-1.567 1.413a.853.853 0 0 1-1.223-1.184l.08-.083 1.566-1.413zM12.15 3c.435 0 .794.325.846.746l.007.107v2.111a.853.853 0 0 1-1.7.107l-.006-.107v-2.11c0-.472.382-.854.853-.854z" fill="#1B1F3B" fill-rule="nonzero"/>
    </g>
    <g id="admin-panel">
        <path d="M17.764 19.053c-.42.1-.679.52-.579.94a.354.354 0 0 1-.068.306.357.357 0 0 1-.285.139H7.246a.357.357 0 0 1-.285-.139.354.354 0 0 1-.068-.305 5.263 5.263 0 0 1 5.146-4.049c1.338 0 2.612.495 3.588 1.394a.781.781 0 0 0 1.058-1.149 6.815 6.815 0 0 0-2.029-1.293A3.897 3.897 0 0 0 15.946 12a3.91 3.91 0 0 0-3.907-3.906A3.91 3.91 0 0 0 8.133 12c0 1.15.5 2.186 1.294 2.902a6.845 6.845 0 0 0-4.054 4.73 1.911 1.911 0 0 0 .362 1.636c.367.465.918.732 1.51.732h9.587c.593 0 1.144-.267 1.511-.732.367-.464.499-1.06.362-1.636a.781.781 0 0 0-.94-.58zM12.391 2a2.346 2.346 0 0 1 2.343 2.344v.393c0 .104.066.198.167.24.1.041.228.027.301-.046l.278-.278a2.328 2.328 0 0 1 1.658-.687c.626 0 1.214.244 1.657.687l.552.552c.914.914.914 2.4 0 3.315l-.278.278c-.073.073-.08.21-.038.311s.128.157.232.157h.393A2.346 2.346 0 0 1 22 11.609v.782a2.346 2.346 0 0 1-2.344 2.343h-.393a.261.261 0 0 0-.24.167l-.005.013a.781.781 0 0 1-1.444-.597l.006-.013a1.818 1.818 0 0 1 1.683-1.132h.393c.431 0 .782-.35.782-.781v-.782c0-.43-.351-.78-.782-.78h-.393c-.739 0-1.4-.445-1.683-1.133l-.005-.011a1.82 1.82 0 0 1 .39-1.992l.277-.278a.782.782 0 0 0 0-1.105l-.552-.552c-.349-.35-.815-.29-1.105 0l-.278.278a1.82 1.82 0 0 1-1.993.388 1.822 1.822 0 0 1-1.142-1.687v-.393c0-.431-.35-.782-.781-.782h-.782c-.43 0-.78.351-.78.782v.393c0 .739-.445 1.4-1.133 1.683-.7.29-1.48.138-2.003-.384l-.278-.278c-.29-.29-.756-.35-1.105 0l-.552.552a.782.782 0 0 0 0 1.105l.278.278a1.82 1.82 0 0 1 .39 1.992l-.006.011a1.818 1.818 0 0 1-1.683 1.132h-.393c-.431 0-.782.35-.782.781v.782c0 .43.351.78.782.78h.393c.739 0 1.4.445 1.683 1.133l.006.013a.781.781 0 0 1-1.444.597l-.006-.013a.261.261 0 0 0-.239-.167h-.393A2.346 2.346 0 0 1 2 12.391v-.782a2.346 2.346 0 0 1 2.344-2.343h.393c.104 0 .19-.056.232-.157.042-.101.035-.238-.038-.311l-.278-.278a2.346 2.346 0 0 1 0-3.315l.552-.552a2.328 2.328 0 0 1 1.657-.687c.626 0 1.215.244 1.658.687l.278.278c.073.073.2.087.301.045a.261.261 0 0 0 .167-.239v-.393A2.346 2.346 0 0 1 11.609 2zm-.352 7.656A2.346 2.346 0 0 1 14.383 12a2.346 2.346 0 0 1-2.344 2.344A2.346 2.346 0 0 1 9.695 12a2.346 2.346 0 0 1 2.344-2.344z" fill="#1B1F3B" fill-rule="nonzero"/>
    </g>
    <g id="support-link">
        <path d="M12 3.9a4.73 4.73 0 0 0-4.725 4.725l.006.266c.057 1.245.513 2.521 1.378 3.434l.063.062.175-.043c-1.394.313-2.963 1.096-3.694 1.737A3.842 3.842 0 0 0 3.9 16.97v1.156l.006.15A1.978 1.978 0 0 0 5.875 20.1h12.25l.15-.006a1.978 1.978 0 0 0 1.825-1.969v-1.156l-.006-.218a3.842 3.842 0 0 0-1.297-2.67c-.462-.405-1.386-.907-2.403-1.358a.725.725 0 0 0-.588 1.325l.223.1.428.202.392.197c.436.228.785.442.99.624.516.452.811 1.107.811 1.798v1.156l-.007.085a.525.525 0 0 1-.518.44H5.875l-.085-.007a.525.525 0 0 1-.44-.518v-1.156l.007-.191a2.388 2.388 0 0 1 .803-1.607c.542-.477 1.991-1.12 3.435-1.496.177-.046.569-.287.737-.543.13-.2.205-.493.206-.684l-.005-.087a.733.733 0 0 0-.202-.499C9.04 10.474 8.725 9.738 8.725 8.625A3.279 3.279 0 0 1 12 5.35a3.279 3.279 0 0 1 3.275 3.275l-.004.23c-.048 1.428-.557 2.414-1.58 2.83l-.097.036.047.066a1.349 1.349 0 0 0-2.49.723 1.35 1.35 0 0 0 2.522.671c1.918-.43 3.052-2.208 3.052-4.556A4.73 4.73 0 0 0 12 3.9z" fill="#1B1F3B" fill-rule="nonzero"/>
    </g>
    <g id="pods">
        <path d="M20.003 10.494c-.36-.222-.76-.267-1.112-.233v-.37C18.89 6.1 15.789 3 12 3 8.21 3 5.11 6.101 5.11 9.89v.371c-.353-.034-.754.01-1.113.233-.662.409-.997 1.27-.997 2.56 0 1.293.336 2.16.999 2.575.33.207.714.278 1.11.244v.38c0 .292.236.528.528.528h2.11a.527.527 0 0 0 .526-.527V9.89a.527.527 0 0 0-.527-.528H6.188A5.844 5.844 0 0 1 12 4.055a5.844 5.844 0 0 1 5.812 5.308h-1.558a.527.527 0 0 0-.527.528v6.363c0 .291.236.527.527.527h1.582v.528c0 .872-.71 1.582-1.582 1.582h-1.708a1.585 1.585 0 0 0-1.491-1.055H12c-.872 0-1.582.71-1.582 1.582 0 .872.71 1.582 1.582 1.582h1.055c.687 0 1.273-.44 1.491-1.055h1.708a2.64 2.64 0 0 0 2.637-2.636v-1.436c.396.034.78-.037 1.11-.244.663-.416.999-1.282.999-2.574 0-1.29-.335-2.152-.997-2.561zM7.197 15.732c-1.644-.592-2.523-.925-2.638-.996-.325-.205-.504-.802-.504-1.681 0-.872.175-1.462.493-1.662.115-.072.998-.396 2.649-.972v5.311zm5.858 4.213H12a.528.528 0 0 1 0-1.054h1.055a.528.528 0 0 1 0 1.054zm6.178-4.986c-.266.123-2.137.788-2.404.755v-5.292c.27-.038 2.147.622 2.416.745.498.227.772.897.772 1.886 0 .995-.279 1.672-.784 1.906z" fill="#091540" fill-rule="nonzero" stroke="#091540" stroke-width=".2"/>
    </g>
    <g id="cases">
        <path d="M21.93 16.005a.768.768 0 0 1-.38 1.018l-8.462 3.846a.764.764 0 0 1-.545.036l-10-3.077a.77.77 0 0 1 .453-1.47l9.721 2.99 8.195-3.725a.765.765 0 0 1 1.019.382zm-9.213.267L2.996 13.28a.768.768 0 1 0-.452 1.471l10 3.077a.782.782 0 0 0 .544-.036l8.461-3.846a.768.768 0 1 0-.637-1.4l-8.195 3.726zM2.001 10.977a.77.77 0 0 1 .47-.747l5.615-2.367c1.106-.466 1.632-1.048 1.632-3.094a.768.768 0 0 1 .953-.747l9.953 2.452a.77.77 0 0 1 .585.747v.117c0 2.276.002 3.778-2.785 4.952-1.866.787-5.292 2.404-5.326 2.421a.764.764 0 0 1-.555.04l-10-3.077a.77.77 0 0 1-.542-.697zm3.017-.151 7.692 2.367c.856-.402 3.51-1.643 5.115-2.32 1.701-.716 1.835-1.268 1.844-3.049l-8.453-2.083c-.149 1.578-.747 2.787-2.531 3.54l-3.667 1.545z" fill="#1B1F3B" fill-rule="nonzero"/>
    </g>
    <g id="more" stroke="#091540" stroke-width="1.5" fill="none" fill-rule="evenodd">
        <circle cx="12" cy="4" r="2"/>
        <circle cx="12" cy="12" r="2"/>
        <circle cx="12" cy="20" r="2"/>
    </g>
    <g id="open-case">
        <path d="M10.65 4H6.4A3.4 3.4 0 0 0 3 7.4v10.2A3.4 3.4 0 0 0 6.4 21h10.2a3.4 3.4 0 0 0 3.4-3.4v-4.25a.85.85 0 0 0-1.7 0v4.25a1.7 1.7 0 0 1-1.7 1.7H6.4a1.7 1.7 0 0 1-1.7-1.7V7.4c0-.94.76-1.7 1.7-1.7h4.25a.85.85 0 0 0 0-1.7zm6.448 1.7H14.05a.85.85 0 0 1 0-1.7h5.1c.47 0 .85.38.85.85v5.1a.85.85 0 0 1-1.7 0V6.902L12.1 13.1a.85.85 0 0 1-1.201-1.202l6.2-6.199z" fill="#091540" fill-rule="evenodd"/>
    </g>
    <g id="folder">
        <path d="M2.26 19.547c.23.292.562.453.933.453h15.98c.556 0 1.033-.379 1.16-.921l1.634-6.973a1.174 1.174 0 0 0-.226-1.015 1.169 1.169 0 0 0-.934-.452h-.4v-1.79c0-.659-.535-1.195-1.192-1.195h-8.478a.395.395 0 0 1-.377-.248L9.207 4.722A1.176 1.176 0 0 0 8.113 4H3.192C2.535 4 2 4.536 2 5.194v13.373c0 .031.055.722.26.98zm18.869-7.97a.39.39 0 0 1 .077.35L19.573 18.9a.404.404 0 0 1-.4.317H3.193a.388.388 0 0 1-.321-.156.39.39 0 0 1-.078-.35l1.633-6.972a.404.404 0 0 1 .4-.317h15.98c.133 0 .239.05.322.156zM3.192 4.784h4.92c.172 0 .31.09.378.249l1.153 2.683c.191.446.61.722 1.094.722h8.478c.227 0 .41.185.41.412v1.79H4.828c-.556 0-1.033.379-1.16.921l-.886 3.78V5.193c0-.226.184-.411.41-.411z" fill="#091540" fill-rule="nonzero" stroke="#091540" stroke-width=".5"/>
    </g>
    <g id="select-all" fill="#091540" fill-rule="nonzero" stroke="#091540">
        <path d="M19.362 10.097a.39.39 0 0 0-.557.043L9.61 21.01l-4.435-4.494a.391.391 0 0 0-.559 0 .404.404 0 0 0 0 .566l4.737 4.8a.396.396 0 0 0 .296.117.396.396 0 0 0 .284-.14l9.473-11.2a.404.404 0 0 0-.043-.563zM19.362 2.097a.39.39 0 0 0-.557.043L9.61 13.01 5.174 8.517a.391.391 0 0 0-.559 0 .404.404 0 0 0 0 .566l4.737 4.8a.396.396 0 0 0 .296.117.396.396 0 0 0 .284-.14l9.473-11.2a.404.404 0 0 0-.043-.563z"/>
    </g>
    <g id="save" fill="#091540" fill-rule="nonzero" stroke="#091540">
        <path d="m19.845 7.355-3.2-3.2A.533.533 0 0 0 16.267 4H5.6A1.6 1.6 0 0 0 4 5.6v12.8A1.6 1.6 0 0 0 5.6 20h12.8a1.6 1.6 0 0 0 1.6-1.6V7.733a.533.533 0 0 0-.155-.378zm-5.712-2.288v3.2H9.867v-3.2h4.266zm-6.4 13.866V15.2c0-.295.24-.533.534-.533h7.466c.295 0 .534.238.534.533v3.733H7.733zm11.2-.533a.533.533 0 0 1-.533.533h-1.067V15.2a1.6 1.6 0 0 0-1.6-1.6H8.267a1.6 1.6 0 0 0-1.6 1.6v3.733H5.6a.533.533 0 0 1-.533-.533V5.6c0-.295.238-.533.533-.533h3.2v3.2c0 .589.478 1.066 1.067 1.066h4.266c.59 0 1.067-.477 1.067-1.066v-3.2h.848l2.885 2.885V18.4z" fill="#091540" fill-rule="nonzero" stroke="#091540" stroke-width=".3"/>
    </g>
    <g id="save-as" fill="#091540" fill-rule="evenodd">
        <path d="m19.845 7.355-3.2-3.2A.534.534 0 0 0 16.267 4H5.6A1.6 1.6 0 0 0 4 5.6v12.8A1.6 1.6 0 0 0 5.6 20h9.066v-5.33H20V7.733a.533.533 0 0 0-.155-.378zm-5.712-2.288v3.2H9.867v-3.2h4.266zm-6.4 13.866V15.2c0-.295.24-.533.534-.533h5.325v4.266H7.732zm11.2-5.333H8.267a1.6 1.6 0 0 0-1.6 1.6v3.733H5.6a.533.533 0 0 1-.533-.533V5.6c0-.295.238-.533.533-.533h3.2v3.2c0 .589.478 1.066 1.067 1.066h4.266c.59 0 1.067-.477 1.067-1.066v-3.2h.848l2.885 2.885V13.6z" fill-rule="nonzero" stroke="#091540" stroke-width=".3"/>
        <path d="M18.644 16.303v6h1.277v-6z"/>
        <path d="M22.283 18.664h-6v1.278h6z"/>
    </g>
    <g id="open-copy" fill="#091540" fill-rule="evenodd">
        <path d="M16.916 6.479H3.605A.605.605 0 0 0 3 7.084v13.311c0 .334.27.605.605.605h13.311c.334 0 .605-.27.605-.605V7.084a.605.605 0 0 0-.605-.605zm-.605 13.31H4.21V7.69h12.1v12.1zm4.084-2.268a.605.605 0 0 1-.605-.605V4.21H7.084a.605.605 0 1 1 0-1.21h13.311c.334 0 .605.27.605.605v13.311c0 .334-.27.605-.605.605zm-5.9-3.782c0 .335-.27.606-.604.606h-3.025v2.42a.605.605 0 1 1-1.21 0v-2.42H6.63a.605.605 0 1 1 0-1.21h3.025v-2.42a.605.605 0 0 1 1.21 0v2.42h3.026c.334 0 .605.27.605.604z" fill="#091540" fill-rule="nonzero" stroke="#091540" stroke-width=".3"/>
    </g>
    <g id="double-arrow-right" fill="#091540" fill-rule="nonzero">
        <path d="m11.25 16.436 4.618-4.93-4.617-4.941a.945.945 0 0 1 0-1.282.878.878 0 0 1 1.29 0l5.208 5.571a.946.946 0 0 1 0 1.282l-5.207 5.572a.868.868 0 0 1-1.291.01.945.945 0 0 1 0-1.282z"/>
        <path d="m6.25 16.436 4.618-4.93-4.617-4.941a.945.945 0 0 1 0-1.282.878.878 0 0 1 1.29 0l5.208 5.571a.946.946 0 0 1 0 1.282l-5.207 5.572a.868.868 0 0 1-1.291.01.945.945 0 0 1 0-1.282z"/>
    </g>
    <g id="api-requests" fill="#091540" fill-rule="nonzero">
        <path d="M12.628 22h-1.256a1.843 1.843 0 0 1-1.84-1.841v-.425a8.074 8.074 0 0 1-1.255-.52l-.3.3a1.841 1.841 0 0 1-2.605 0l-.887-.887a1.841 1.841 0 0 1 0-2.604l.301-.3a8.075 8.075 0 0 1-.52-1.254H3.84A1.843 1.843 0 0 1 2 12.628v-1.256c0-1.015.826-1.84 1.841-1.84h.425c.138-.432.312-.852.52-1.255l-.3-.3a1.841 1.841 0 0 1 0-2.605l.887-.887a1.841 1.841 0 0 1 2.604 0l.3.301a8.082 8.082 0 0 1 1.254-.52V3.84c0-1.015.826-1.841 1.841-1.841h1.256c1.015 0 1.84.826 1.84 1.841v.425c.432.138.852.312 1.255.52l.3-.3a1.841 1.841 0 0 1 2.605 0l.887.887c.709.708.73 1.875 0 2.604l-.301.3c.208.403.382.823.52 1.254h.425c1.015 0 1.841.826 1.841 1.841v1.256a1.843 1.843 0 0 1-1.841 1.84h-.425c-.138.432-.312.852-.52 1.255l.3.3c.73.729.71 1.896 0 2.605l-.887.887c-.71.71-1.876.728-2.604 0l-.3-.301a8.082 8.082 0 0 1-1.254.52v.425A1.843 1.843 0 0 1 12.628 22zm-4.155-4.017c.56.331 1.162.581 1.79.743.26.067.44.3.44.568v.865c0 .369.3.67.67.67h1.255c.369 0 .669-.301.669-.67v-.865c0-.268.18-.5.44-.568a6.907 6.907 0 0 0 1.79-.743c.23-.136.523-.099.712.09l.613.613a.669.669 0 0 0 .946 0l.888-.887a.67.67 0 0 0 0-.947l-.613-.613a.586.586 0 0 1-.09-.712c.331-.56.581-1.162.743-1.79.067-.26.3-.44.568-.44h.865c.369 0 .67-.3.67-.67v-1.255a.67.67 0 0 0-.67-.669h-.865c-.267 0-.5-.18-.568-.44a6.907 6.907 0 0 0-.743-1.79.586.586 0 0 1 .09-.712l.613-.613a.669.669 0 0 0 0-.946l-.887-.888a.67.67 0 0 0-.947 0l-.613.613a.586.586 0 0 1-.712.09 6.907 6.907 0 0 0-1.79-.743.586.586 0 0 1-.44-.568v-.865a.67.67 0 0 0-.67-.67h-1.255a.67.67 0 0 0-.669.67v.865c0 .268-.18.5-.44.568a6.907 6.907 0 0 0-1.79.743.586.586 0 0 1-.712-.09l-.613-.613a.669.669 0 0 0-.946 0l-.888.887a.67.67 0 0 0 0 .947l.613.613c.189.189.226.482.09.712a6.905 6.905 0 0 0-.743 1.79.586.586 0 0 1-.568.44h-.865a.67.67 0 0 0-.67.67v1.255c0 .369.301.669.67.669h.865c.268 0 .5.18.568.44.162.628.412 1.23.743 1.79.136.23.099.523-.09.712l-.613.613a.669.669 0 0 0 0 .946l.887.888a.67.67 0 0 0 .947 0l.613-.613c.139-.14.429-.257.712-.09z" stroke="#091540" stroke-width=".1"/>
        <path d="M10.64 10v4.365H9.258c-.874 0-1.609-.6-1.814-1.41L6 12.952v-1.19l1.391-.001.002-.037A1.871 1.871 0 0 1 9.258 10h1.382zm4.103 0c.981 0 1.786.755 1.865 1.715l1.39-.002L18 12.9l-1.43.003a1.872 1.872 0 0 1-1.827 1.462h-1.381l-.001-.679h-1.355v-1.19l1.355-.001v-.618h-1.355v-1.19l1.355-.001V10zm-5.04.936h-.445a.936.936 0 0 0-.929.826l-.006.11v.622c0 .48.36.875.826.93l.11.005h.444v-2.493zm5.04 0h-.445v2.493h.445l.11-.006a.936.936 0 0 0 .826-.93v-.622l-.006-.109a.936.936 0 0 0-.93-.826z"/>
    </g>
    <g id="many-to-one" fill-rule="nonzero">
        <path d="M6.611 20.242h.075c1.096 0 2.035-.455 2.87-1.392.688-.77 1.226-1.774 1.746-2.745.969-1.81 1.884-3.52 3.583-3.52H19.758L18 14.345l.828.828L22 12l-3.171-3.172-.828.828 1.757 1.758H14.885c-1.699 0-2.614-1.71-3.583-3.519-.52-.971-1.058-1.975-1.745-2.745-.836-.937-1.775-1.392-2.871-1.392H6.61A2.347 2.347 0 0 0 4.343 2 2.346 2.346 0 0 0 2 4.344a2.346 2.346 0 0 0 2.343 2.344c1.09 0 2.008-.749 2.268-1.758h.075c1.699 0 2.614 1.709 3.583 3.519.52.97 1.058 1.975 1.745 2.745.069.077.138.15.208.22h-5.61a2.347 2.347 0 0 0-2.27-1.758A2.346 2.346 0 0 0 2 12a2.346 2.346 0 0 0 2.343 2.344c1.09 0 2.008-.748 2.268-1.758h5.61c-.07.07-.138.143-.207.22-.687.77-1.225 1.774-1.745 2.745-.969 1.81-1.884 3.52-3.583 3.52H6.61a2.347 2.347 0 0 0-2.268-1.759A2.346 2.346 0 0 0 2 19.657 2.346 2.346 0 0 0 4.343 22c1.09 0 2.008-.748 2.268-1.758zM4.343 5.516a1.173 1.173 0 0 1 0-2.344 1.173 1.173 0 0 1 0 2.344zm0 7.656a1.173 1.173 0 0 1 0-2.344 1.173 1.173 0 0 1 0 2.344zM3.17 19.656c0-.646.526-1.172 1.172-1.172a1.173 1.173 0 0 1 0 2.344 1.173 1.173 0 0 1-1.172-1.172z" fill="#D3D3D3" fill-rule="nonzero"/>
    </g>
    <g id="my-profile" fill-rule="nonzero">
        <path d="M11.876 3.9c2.567 0 4.645 2.048 4.645 4.58 0 2.425-1.902 4.412-4.31 4.581h2.06c3.105 0 5.629 2.496 5.629 5.565 0 .662-.504 1.203-1.156 1.267l-.133.007H5.19A1.278 1.278 0 0 1 3.9 18.626c0-2.997 2.406-5.447 5.408-5.562l.22-.004 2.021.002c-2.407-.167-4.317-2.16-4.317-4.581 0-2.527 2.082-4.581 4.644-4.581zm2.395 10.7H9.53c-2.115 0-3.869 1.608-4.055 3.664l-.007.095h12.865l-.006-.095c-.18-1.989-1.828-3.56-3.851-3.658l-.204-.005zM11.876 5.24c-1.814 0-3.29 1.455-3.29 3.242 0 1.79 1.479 3.253 3.29 3.253 1.817 0 3.29-1.457 3.29-3.253 0-1.794-1.47-3.242-3.29-3.242z" fill="#1B1F3B" fill-rule="nonzero"/>
    </g>
    <g id="risk-report" fill-rule="nonzero">
        <path d="M16.5 3A4.5 4.5 0 0 1 21 7.5v9a4.5 4.5 0 0 1-4.5 4.5h-9A4.5 4.5 0 0 1 3 16.5v-9A4.5 4.5 0 0 1 7.5 3zm0 1.5h-9c-1.654 0-3 1.346-3 3v9c0 1.654 1.346 3 3 3h9c1.654 0 3-1.346 3-3v-9c0-1.654-1.346-3-3-3zm-.986 4.3.076.006.075.014.086.027.088.041.058.036.058.044.055.053.053.063.038.057.029.054.032.078.024.088.011.084.003.055v3a.7.7 0 0 1-1.4 0v-1.312l-2.306 2.308a.702.702 0 0 1-.704.173l-.103-.042-1.55-.775-2.142 2.143a.697.697 0 0 1-.385.196l-.11.009a.7.7 0 0 1-.495-1.194l2.5-2.5a.699.699 0 0 1 .808-.132l1.548.774 1.947-1.948H12.5a.7.7 0 0 1-.693-.605L11.8 9.5a.7.7 0 0 1 .7-.7h3.014z" fill="#1B1F3B" fill-rule="nonzero"/>
    </g>
    <g id="monitoring" fill-rule="nonzero">
        <path d="M11.64 3a8.64 8.64 0 1 1 0 17.28 8.64 8.64 0 0 1 0-17.28zm3.6 8.64a.72.72 0 0 0-.72.72v1.44a.72.72 0 0 0 1.44 0v-1.44a.72.72 0 0 0-.72-.72zm-3.6-1.44a.72.72 0 0 0-.72.72v2.88a.72.72 0 0 0 1.44 0v-2.88a.72.72 0 0 0-.72-.72zm-3.6-1.44a.72.72 0 0 0-.72.72v4.32a.72.72 0 0 0 1.44 0V9.48a.72.72 0 0 0-.72-.72zm3.6 10.08a7.2 7.2 0 1 0 0-14.4 7.2 7.2 0 0 0 0 14.4zm9.15.93a.72.72 0 1 1-1.02 1.02l-2.88-2.88a.72.72 0 1 1 1.02-1.02l2.88 2.88z" fill="#1B1F3B" fill-rule="nonzero"/>
    </g>
    <g id="file" fill="#5A78EA" fill-rule="nonzero" stroke="#5A78EA" stroke-width=".3">
        <path d="m20.26 5.764-4.117-4.62c-.024-.024-.072-.048-.096-.072-.024 0-.024-.024-.048-.024A.451.451 0 0 0 15.807 1H5.705A2.718 2.718 0 0 0 3 3.705v16.59A2.718 2.718 0 0 0 5.705 23h11.97a2.718 2.718 0 0 0 2.705-2.705V6.05c0-.048-.096-.263-.12-.287zm-3.998-3.136L18.92 5.62h-2.657V2.628zM19.47 20.27c0 1.005-.79 1.82-1.795 1.82H5.705a1.793 1.793 0 0 1-1.795-1.796V3.68c0-1.005.814-1.795 1.795-1.795h9.648V6.05c0 .24.191.455.454.455h3.663v13.765z"/>
        <path d="M6.232 6.506h3.998c.239 0 .454-.192.454-.455a.44.44 0 0 0-.454-.455H6.232a.455.455 0 1 0 0 .91zM5.777 9.067c0 .24.191.455.455.455h10.677a.455.455 0 1 0 0-.91H6.232a.455.455 0 0 0-.455.455zM16.909 11.863H6.232a.455.455 0 1 0 0 .91h10.677c.239 0 .454-.192.454-.455a.44.44 0 0 0-.454-.455zM16.909 15.09H6.232a.455.455 0 1 0 0 .909h10.677c.239 0 .454-.192.454-.455a.44.44 0 0 0-.454-.455zM16.909 18.316H6.232a.455.455 0 1 0 0 .91h10.677a.455.455 0 1 0 0-.91z"/>
    </g>
    <g id="additional-open" fill="#5A78EA" fill-rule="nonzero">
        <path d="M19.594 19.04a.705.705 0 0 1-.703.705H5.109a.705.705 0 0 1-.703-.705V5.228c0-.388.316-.704.703-.704h5.483a.705.705 0 0 0 0-1.41H5.11C3.946 3.114 3 4.063 3 5.228V19.04c0 1.166.946 2.115 2.11 2.115h13.78c1.164 0 2.11-.949 2.11-2.115v-5.498a.703.703 0 0 0-1.406 0v5.498z"/>
        <path d="M13.969 3.819c0 .39.315.705.704.705H18.6l-6.559 6.573a.705.705 0 0 0 0 .996.702.702 0 0 0 .994 0l6.56-6.573v3.938a.703.703 0 0 0 1.406 0V3.114h-6.327a.705.705 0 0 0-.704.705z"/>
    </g>
    <g id="attention" transform="translate(2 4)" fill="#000" fill-rule="nonzero">
        <path d="M10 10.934a.625.625 0 0 1-.625-.625V5.934a.625.625 0 0 1 1.25 0v4.375c0 .345-.28.625-.625.625z"/>
        <path d="m19.735 14.071-7.78-12.966c-.882-1.472-3.026-1.475-3.91 0L.264 14.07c-.736 1.226.15 2.8 1.585 2.8h16.3c1.436 0 2.321-1.574 1.585-2.8zm-1.585 1.55H1.85a.6.6 0 0 1-.514-.907l7.78-12.966a1.032 1.032 0 0 1 1.768 0l7.78 12.966a.6.6 0 0 1-.514.906z"/>
        <circle cx="10" cy="12.496" r="1"/>
    </g>
    <g id="crossing" fill="none" fill-rule="evenodd">
        <circle cx="4" cy="4" r="3.25" transform="translate(14.209 7.773)" stroke="#000" stroke-width="1.5"/>
        <path d="M7.935 12.71a.75.75 0 0 1 1.025-.275l4.114 2.375a1 1 0 0 1 .366 1.366l-2.375 4.114-.057.085a.75.75 0 0 1-.968.19l-.085-.057a.75.75 0 0 1-.19-.968l1.692-2.931-1.473.26a5.085 5.085 0 0 0-4.125 5.891.75.75 0 1 1-1.477.26 6.585 6.585 0 0 1 5.114-7.584l.227-.044 1.04-.184-2.553-1.474-.085-.056a.75.75 0 0 1-.19-.968zM7.935 11.265a.75.75 0 0 0 1.025.275l4.114-2.375a1 1 0 0 0 .366-1.366l-2.375-4.114-.057-.084a.75.75 0 0 0-.968-.19l-.085.057a.75.75 0 0 0-.19.967l1.692 2.932-1.473-.26a5.085 5.085 0 0 1-4.125-5.892.75.75 0 1 0-1.477-.26 6.585 6.585 0 0 0 5.114 7.584l.227.045 1.04.184L8.21 10.24l-.085.057a.75.75 0 0 0-.19.967z" fill="#000" fill-rule="nonzero"/>
    </g>

    <g id="actions-info">
        <path d="M8 1.333A6.663 6.663 0 0 0 1.333 8 6.663 6.663 0 0 0 8 14.667 6.663 6.663 0 0 0 14.667 8 6.663 6.663 0 0 0 8 1.333zm0 12.292A5.622 5.622 0 0 1 2.375 8 5.622 5.622 0 0 1 8 2.375 5.622 5.622 0 0 1 13.625 8 5.622 5.622 0 0 1 8 13.625zm1.545-2.552a.52.52 0 0 1-.52.52h-2.05a.52.52 0 1 1 0-1.04h.504V7.496h-.503a.52.52 0 1 1 0-1.042H8a.52.52 0 0 1 .52.52v3.577h.504a.52.52 0 0 1 .521.52zM7.35 4.553a.651.651 0 1 1 1.302 0 .651.651 0 0 1-1.302 0z" fill="#1B1F3B" fill-rule="nonzero"/>
    </g>
    <g id="input-arrow">
        <path d="m12.9 18.323 3.87-3.869a.605.605 0 0 0-.856-.854l-2.836 2.836V6.104a.605.605 0 0 0-1.21 0v10.332L9.033 13.6a.604.604 0 1 0-.855.854l3.869 3.869a.604.604 0 0 0 .854 0z" fill="#70AC3F" fill-rule="nonzero"/>
    </g>
    <g id="output-arrow">
        <path d="m11.927 6.15 3.869 3.869a.605.605 0 0 1-.855.855l-2.837-2.837v10.332a.605.605 0 0 1-1.208 0V8.037l-2.837 2.836a.604.604 0 1 1-.855-.854l3.869-3.869a.604.604 0 0 1 .854 0z" fill="#FF2A00" fill-rule="nonzero"/>
    </g>
    <g id="input-output-arrow" fill-rule="nonzero" fill="none">
        <path d="m17.9 5.677 3.87 3.869a.605.605 0 0 1-.856.854l-2.836-2.836v10.332a.605.605 0 0 1-1.21 0V7.564L14.033 10.4a.604.604 0 1 1-.855-.854l3.869-3.869a.604.604 0 0 1 .854 0z" fill="#FF2A00"/>
        <path d="m6.9 18.323 3.87-3.869a.605.605 0 0 0-.856-.854l-2.836 2.836V6.104a.605.605 0 0 0-1.21 0v10.332L3.033 13.6a.604.604 0 1 0-.855.854l3.869 3.869a.604.604 0 0 0 .854 0z" fill="#70AC3F"/>
    </g>
</svg>

